<svg width="17" height="17" viewBox="0 0 17 17" fill="none" xmlns="http://www.w3.org/2000/svg">
<path d="M13.8334 7.1665L14.0694 7.4025L14.3047 7.1665L14.0694 6.9305L13.8334 7.1665ZM2.83337 12.4998C2.83337 12.5882 2.86849 12.673 2.93101 12.7355C2.99352 12.798 3.0783 12.8332 3.16671 12.8332C3.25511 12.8332 3.3399 12.798 3.40241 12.7355C3.46492 12.673 3.50004 12.5882 3.50004 12.4998H2.83337ZM10.736 10.7358L14.0694 7.4025L13.5974 6.9305L10.264 10.2638L10.736 10.7358ZM14.0694 6.9305L10.736 3.59717L10.264 4.06917L13.5974 7.4025L14.0694 6.9305ZM13.8334 6.83317H7.16671V7.49983H13.8334V6.83317ZM2.83337 11.1665V12.4998H3.50004V11.1665H2.83337ZM7.16671 6.83317C6.01744 6.83317 4.91524 7.28971 4.10258 8.10237C3.28992 8.91503 2.83337 10.0172 2.83337 11.1665H3.50004C3.50004 10.194 3.88635 9.26141 4.57398 8.57378C5.26162 7.88614 6.19425 7.49983 7.16671 7.49983V6.83317Z" fill="#E0AA06"/>
</svg>
