<svg width="25" height="25" viewBox="0 0 25 25" fill="none" xmlns="http://www.w3.org/2000/svg">
<path d="M17 5.5V3.5M8 5.5V3.5M3.75 8.5H21.25M3.5 10.544C3.5 8.429 3.5 7.371 3.936 6.563C4.33025 5.84231 4.94199 5.2645 5.684 4.912C6.54 4.5 7.66 4.5 9.9 4.5H15.1C17.34 4.5 18.46 4.5 19.316 4.912C20.069 5.274 20.68 5.852 21.064 6.562C21.5 7.372 21.5 8.43 21.5 10.545V15.457C21.5 17.572 21.5 18.63 21.064 19.438C20.6698 20.1587 20.058 20.7365 19.316 21.089C18.46 21.5 17.34 21.5 15.1 21.5H9.9C7.66 21.5 6.54 21.5 5.684 21.088C4.94214 20.7358 4.33041 20.1583 3.936 19.438C3.5 18.628 3.5 17.57 3.5 15.455V10.544Z" stroke="#E0AA06" stroke-width="1.5" stroke-linecap="round" stroke-linejoin="round"/>
</svg>
