<svg width="25" height="24" viewBox="0 0 25 24" fill="none" xmlns="http://www.w3.org/2000/svg">
<path d="M22.8815 6.52313C22.8466 6.47715 22.8015 6.43986 22.7498 6.41417C22.6981 6.38848 22.6411 6.37507 22.5834 6.375H5.90994L4.94431 2.89969C4.9224 2.82077 4.87526 2.75119 4.81008 2.70159C4.7449 2.65199 4.66528 2.62509 4.58337 2.625H2.33337C2.23392 2.625 2.13854 2.66451 2.06821 2.73484C1.99788 2.80516 1.95837 2.90054 1.95837 3C1.95837 3.09946 1.99788 3.19484 2.06821 3.26516C2.13854 3.33549 2.23392 3.375 2.33337 3.375H4.30212L7.66681 15.5016C7.77728 15.896 8.01351 16.2436 8.33958 16.4915C8.66566 16.7394 9.06376 16.874 9.47337 16.875H18.7396C19.1492 16.874 19.5473 16.7394 19.8734 16.4915C20.1995 16.2436 20.4357 15.896 20.5462 15.5016L22.949 6.85031C22.9638 6.79427 22.9654 6.73556 22.9537 6.67879C22.942 6.62202 22.9173 6.56874 22.8815 6.52313ZM19.8187 15.3009C19.7531 15.5371 19.6123 15.7454 19.4175 15.8941C19.2227 16.0428 18.9847 16.1239 18.7396 16.125H9.47337C9.2275 16.1249 8.98841 16.0443 8.79269 15.8955C8.59697 15.7467 8.4554 15.5379 8.38962 15.3009L6.11806 7.125H22.0902L19.8187 15.3009ZM10.2084 20.25C10.2084 20.4725 10.1424 20.69 10.0188 20.875C9.89516 21.06 9.71946 21.2042 9.51389 21.2894C9.30833 21.3745 9.08213 21.3968 8.8639 21.3534C8.64567 21.31 8.44521 21.2028 8.28788 21.0455C8.13054 20.8882 8.0234 20.6877 7.97999 20.4695C7.93658 20.2512 7.95886 20.025 8.04401 19.8195C8.12916 19.6139 8.27335 19.4382 8.45836 19.3146C8.64336 19.191 8.86087 19.125 9.08337 19.125C9.38174 19.125 9.66789 19.2435 9.87887 19.4545C10.0898 19.6655 10.2084 19.9516 10.2084 20.25ZM19.9584 20.25C19.9584 20.4725 19.8924 20.69 19.7688 20.875C19.6452 21.06 19.4695 21.2042 19.2639 21.2894C19.0583 21.3745 18.8321 21.3968 18.6139 21.3534C18.3957 21.31 18.1952 21.2028 18.0379 21.0455C17.8805 20.8882 17.7734 20.6877 17.73 20.4695C17.6866 20.2512 17.7089 20.025 17.794 19.8195C17.8792 19.6139 18.0234 19.4382 18.2084 19.3146C18.3934 19.191 18.6109 19.125 18.8334 19.125C19.1317 19.125 19.4179 19.2435 19.6289 19.4545C19.8398 19.6655 19.9584 19.9516 19.9584 20.25Z" fill="#949494" fill-opacity="0.5"/>
</svg>
