<svg width="25" height="25" viewBox="0 0 25 25" fill="none" xmlns="http://www.w3.org/2000/svg">
<path d="M6.40783 21.7461H18.602C20.7015 21.7461 21.746 20.7017 21.746 18.6325V6.36723C21.746 4.29809 20.7015 3.25366 18.602 3.25366H6.40783C4.31854 3.25366 3.25354 4.28823 3.25354 6.36723V18.6329C3.25354 20.7119 4.31854 21.7461 6.40783 21.7461ZM6.43783 20.1295C5.43368 20.1295 4.87097 19.5972 4.87097 18.5524V6.44866C4.87097 5.4038 5.43368 4.87152 6.43783 4.87152H18.572C19.5663 4.87152 20.129 5.4038 20.129 6.44866V18.5515C20.129 19.5964 19.5663 20.1287 18.572 20.1287L6.43783 20.1295ZM9.9234 17.3871C10.3151 17.3871 10.5564 17.1865 10.6365 16.8145L11.0887 14.6549H12.9573L12.545 16.6238C12.455 17.0357 12.7464 17.3871 13.1578 17.3871C13.5697 17.3871 13.8307 17.1865 13.9014 16.8145L14.3531 14.6451H15.398C15.7897 14.6451 16.0708 14.3537 16.0708 13.9722C16.0708 13.6307 15.83 13.3795 15.4983 13.3795H14.6244L15.0564 11.3404H16.121C16.5024 11.3404 16.784 11.0489 16.784 10.6675C16.784 10.3259 16.5431 10.0748 16.2114 10.0748H15.3174L15.7091 8.19638C15.7897 7.78495 15.4884 7.43309 15.0765 7.43309C14.6848 7.43309 14.4337 7.63409 14.3531 8.01595L13.9211 10.0748H12.053L12.4447 8.19638C12.5253 7.7948 12.2437 7.43309 11.822 7.43309C11.42 7.43309 11.1688 7.63409 11.0887 8.01595L10.667 10.0748H9.60197C9.22054 10.0748 8.93897 10.3662 8.93897 10.7477C8.93897 11.0892 9.18025 11.3404 9.51154 11.3404H10.3957L9.96368 13.3795H8.88883C8.5074 13.3795 8.21597 13.6709 8.21597 14.0524C8.21597 14.3939 8.45683 14.6451 8.79883 14.6451H9.70268L9.29083 16.6238C9.21025 17.0357 9.51154 17.3871 9.9234 17.3871ZM11.2794 13.4999L11.7414 11.2401H13.7604L13.2885 13.4999H11.2794Z" fill="#E0AA06"/>
</svg>
