<svg width="24" height="24" viewBox="0 0 24 24" fill="none" xmlns="http://www.w3.org/2000/svg">
<rect width="24" height="24" fill="#1E1E1E"/>
<g id="&#216;&#167;&#217;&#132;&#216;&#185;&#217;&#134;&#216;&#167;&#217;&#136;&#217;&#138;&#217;&#134;3" clip-path="url(#clip0_0_1)">
<rect width="375" height="812" transform="translate(-321 -234)" fill="#FBFBFB"/>
<g id="Frame 1686561469">
<g id="card">
<path id="BG" d="M-305.445 -7.52734C-305.445 -11.9456 -301.864 -15.5273 -297.445 -15.5273H29.5547C33.973 -15.5273 37.5547 -11.9456 37.5547 -7.52734V36.4727C37.5547 40.8909 33.973 44.4727 29.5547 44.4727H-297.445C-301.864 44.4727 -305.445 40.8909 -305.445 36.4727V-7.52734Z" fill="white"/>
<g id="Frame 1686561377">
<g id="Frame 1000003592">
<g id="Frame 1686561468">
<g id="ep:location-filled">
<path id="Vector" d="M12 21.75C12.561 21.75 14.754 20.148 16.5015 18.1605C18.831 15.513 20.25 12.558 20.25 9.75C20.25 5.3055 16.5975 2.25 12 2.25C7.4025 2.25 3.75 5.3055 3.75 9.75C3.75 12.57 5.169 15.525 7.4985 18.1695C9.2445 20.1525 11.4375 21.75 12 21.75ZM12 11.55C12.3978 11.55 12.7794 11.392 13.0607 11.1107C13.342 10.8294 13.5 10.4478 13.5 10.05C13.5 9.65217 13.342 9.27064 13.0607 8.98934C12.7794 8.70804 12.3978 8.55 12 8.55C11.6022 8.55 11.2206 8.70804 10.9393 8.98934C10.658 9.27064 10.5 9.65217 10.5 10.05C10.5 10.4478 10.658 10.8294 10.9393 11.1107C11.2206 11.392 11.6022 11.55 12 11.55ZM12 14.85C10.727 14.85 9.50606 14.3443 8.60589 13.4441C7.70571 12.5439 7.2 11.323 7.2 10.05C7.2 8.77696 7.70571 7.55606 8.60589 6.65589C9.50606 5.75571 10.727 5.25 12 5.25C13.273 5.25 14.4939 5.75571 15.3941 6.65589C16.2943 7.55606 16.8 8.77696 16.8 10.05C16.8 11.323 16.2943 12.5439 15.3941 13.4441C14.4939 14.3443 13.273 14.85 12 14.85Z" fill="#E0AA06"/>
</g>
</g>
</g>
</g>
</g>
</g>
</g>
<defs>
<clipPath id="clip0_0_1">
<rect width="375" height="812" fill="white" transform="translate(-321 -234)"/>
</clipPath>
</defs>
</svg>
