<svg width="25" height="25" viewBox="0 0 25 25" fill="none" xmlns="http://www.w3.org/2000/svg">
<path d="M12.5547 3.72266C12.7536 3.72266 12.9444 3.80167 13.085 3.94233C13.2257 4.08298 13.3047 4.27374 13.3047 4.47266C13.3047 4.67157 13.2257 4.86233 13.085 5.00299C12.9444 5.14364 12.7536 5.22266 12.5547 5.22266C10.6319 5.22266 8.7878 5.98649 7.42816 7.34613C6.06852 8.70577 5.30469 10.5498 5.30469 12.4727C5.30469 14.3955 6.06852 16.2395 7.42816 17.5992C8.7878 18.9588 10.6319 19.7227 12.5547 19.7227C12.7536 19.7227 12.9444 19.8017 13.085 19.9423C13.2257 20.083 13.3047 20.2737 13.3047 20.4727C13.3047 20.6716 13.2257 20.8623 13.085 21.003C12.9444 21.1436 12.7536 21.2227 12.5547 21.2227C10.234 21.2227 8.00845 20.3008 6.3675 18.6598C4.72656 17.0189 3.80469 14.7933 3.80469 12.4727C3.80469 10.152 4.72656 7.92642 6.3675 6.28547C8.00845 4.64453 10.234 3.72266 12.5547 3.72266Z" fill="#BB0000"/>
<path d="M17.0247 10.0025C16.8922 9.86033 16.8201 9.67228 16.8235 9.47798C16.8269 9.28368 16.9057 9.09829 17.0431 8.96088C17.1805 8.82347 17.3659 8.74476 17.5602 8.74133C17.7545 8.7379 17.9425 8.81002 18.0847 8.9425L21.0847 11.9425C21.2251 12.0831 21.304 12.2738 21.304 12.4725C21.304 12.6713 21.2251 12.8619 21.0847 13.0025L18.0847 16.0025C18.016 16.0762 17.9332 16.1353 17.8412 16.1763C17.7492 16.2173 17.6499 16.2393 17.5492 16.2411C17.4485 16.2429 17.3485 16.2243 17.2551 16.1866C17.1617 16.1489 17.0769 16.0928 17.0056 16.0215C16.9344 15.9503 16.8783 15.8655 16.8406 15.7721C16.8028 15.6787 16.7843 15.5787 16.7861 15.478C16.7879 15.3773 16.8099 15.278 16.8509 15.186C16.8919 15.094 16.951 15.0112 17.0247 14.9425L18.7447 13.2225H10.5547C10.3558 13.2225 10.165 13.1435 10.0244 13.0028C9.88371 12.8622 9.80469 12.6714 9.80469 12.4725C9.80469 12.2736 9.88371 12.0828 10.0244 11.9422C10.165 11.8015 10.3558 11.7225 10.5547 11.7225H18.7447L17.0247 10.0025Z" fill="#BB0000"/>
</svg>
