<svg width="25" height="24" viewBox="0 0 25 24" fill="none" xmlns="http://www.w3.org/2000/svg">
<g clip-path="url(#clip0_1_3876)">
<path d="M17.3337 13.5208C17.0489 13.5239 16.7649 13.5541 16.4857 13.6112C16.5143 13.7416 16.5132 13.8767 16.4827 14.0067C16.4521 14.1367 16.3928 14.2581 16.3091 14.3621C16.2255 14.4662 16.1195 14.5501 15.9991 14.6078C15.8787 14.6655 15.747 14.6955 15.6135 14.6955C15.4635 14.6941 15.3163 14.6548 15.1854 14.5815C15.0546 14.5082 14.9443 14.4031 14.8647 14.276C14.3668 14.6064 13.9401 15.0331 13.6097 15.531C13.868 15.6926 14.0264 15.9747 14.0293 16.2795C14.0292 16.5165 13.935 16.7437 13.7674 16.9112C13.5998 17.0787 13.3725 17.1728 13.1355 17.1728C13.0719 17.1695 13.0087 17.1594 12.9472 17.1426C12.8888 17.4247 12.8578 17.7118 12.8545 17.9999C12.8579 18.288 12.8889 18.5751 12.9472 18.8572C13.0087 18.8405 13.0719 18.8303 13.1355 18.827C13.3725 18.827 13.5997 18.9211 13.7673 19.0886C13.9349 19.256 14.0291 19.4832 14.0293 19.7201C14.0278 19.8701 13.9886 20.0173 13.9153 20.1482C13.8419 20.279 13.7369 20.3893 13.6097 20.4689C13.9401 20.9668 14.3668 21.3936 14.8647 21.7241C14.9442 21.5969 15.0545 21.4918 15.1853 21.4185C15.3161 21.3451 15.4633 21.3058 15.6132 21.3043C15.8502 21.3044 16.0774 21.3986 16.2449 21.5662C16.4125 21.7338 16.5066 21.9611 16.5066 22.198C16.5032 22.2617 16.4931 22.3249 16.4764 22.3864C16.7585 22.4447 17.0455 22.476 17.3337 22.4791C17.6217 22.4758 17.9088 22.4448 18.191 22.3864C18.1742 22.3249 18.1641 22.2617 18.1607 22.198C18.1607 21.9611 18.2548 21.7339 18.4223 21.5663C18.5898 21.3987 18.8169 21.3045 19.0539 21.3043C19.2039 21.3058 19.3511 21.3451 19.4819 21.4184C19.6128 21.4918 19.7231 21.5969 19.8026 21.7241C20.3006 21.3936 20.7274 20.9668 21.0578 20.4689C20.9307 20.3894 20.8256 20.2791 20.7522 20.1483C20.6788 20.0175 20.6396 19.8703 20.638 19.7203C20.6381 19.4834 20.7324 19.2561 20.9 19.0886C21.0676 18.9211 21.2948 18.827 21.5318 18.827C21.5957 18.8303 21.6585 18.8404 21.7201 18.8572C21.7785 18.5751 21.8097 18.288 21.8128 17.9999C21.8124 17.7118 21.7841 17.4243 21.7285 17.1416C21.6643 17.1593 21.5983 17.1698 21.5318 17.1728C21.2949 17.1728 21.0676 17.0788 20.9 16.9113C20.7324 16.7438 20.6382 16.5166 20.638 16.2797C20.6397 16.1281 20.6799 15.9794 20.7549 15.8476C20.8298 15.7158 20.9371 15.6053 21.0666 15.5264C20.7354 15.0265 20.3072 14.5983 19.8074 14.267C19.7285 14.3965 19.618 14.5037 19.4862 14.5787C19.3544 14.6537 19.2057 14.6939 19.0541 14.6955C18.8171 14.6954 18.5899 14.6012 18.4224 14.4336C18.2548 14.266 18.1607 14.0388 18.1607 13.8018C18.1638 13.7353 18.1743 13.6693 18.192 13.6051C17.9093 13.5495 17.6218 13.5212 17.3337 13.5208Z" stroke="#949494" stroke-width="1.0" stroke-linecap="round" stroke-linejoin="round"/>
<path d="M19.4695 16.3141L18.5741 17.2096C18.5601 17.2236 18.5434 17.2348 18.5251 17.2424C18.5068 17.25 18.4871 17.254 18.4672 17.254C18.4474 17.254 18.4277 17.25 18.4094 17.2424C18.391 17.2348 18.3744 17.2236 18.3604 17.2096L18.1224 16.9716C18.1084 16.9576 18.0972 16.941 18.0896 16.9226C18.082 16.9043 18.078 16.8846 18.078 16.8648C18.078 16.8449 18.082 16.8252 18.0896 16.8069C18.0972 16.7886 18.1084 16.7719 18.1224 16.7579L19.0149 15.8654C18.7531 15.7048 18.4449 15.6368 18.1397 15.6723C17.8346 15.7078 17.5502 15.8448 17.3322 16.0612C17.1503 16.2437 17.0234 16.4738 16.9663 16.7252C16.9091 16.9765 16.924 17.2388 17.0091 17.4821L15.1737 19.3175C14.937 19.5541 14.9339 19.9323 15.1668 20.1654C15.3997 20.3981 15.7779 20.395 16.0147 20.1581L17.8497 18.3231C18.093 18.4083 18.3555 18.4232 18.6069 18.3661C18.8583 18.3089 19.0884 18.182 19.271 18C19.4887 17.7821 19.6266 17.4974 19.6627 17.1915C19.6987 16.8857 19.6308 16.5766 19.4697 16.3141" stroke="#949494" stroke-width="1.0" stroke-linecap="round" stroke-linejoin="round"/>
</g>
<path d="M4.36667 7.10769H6.73333M4.36667 11.9H11.4667M4.36667 14.6385H11.4667M4.36667 17.3769H6.73333M3.18333 20.8H12.65C12.9638 20.8 13.2648 20.6557 13.4867 20.399C13.7087 20.1422 13.8333 19.7939 13.8333 19.4308V4.36923C13.8333 4.00609 13.7087 3.65782 13.4867 3.40104C13.2648 3.14426 12.9638 3 12.65 3H3.18333C2.86949 3 2.56851 3.14426 2.34659 3.40104C2.12467 3.65782 2 4.00609 2 4.36923V19.4308C2 19.7939 2.12467 20.1422 2.34659 20.399C2.56851 20.6557 2.86949 20.8 3.18333 20.8Z" stroke="#949494" stroke-width="1.0" stroke-linecap="round" stroke-linejoin="round"/>
<defs>
<clipPath id="clip0_1_3876">
<rect width="10" height="10" fill="white" transform="translate(12.3335 13)"/>
</clipPath>
</defs>
</svg>
