<svg width="25" height="24" viewBox="0 0 25 24" fill="none" xmlns="http://www.w3.org/2000/svg">
<path d="M12.5 1.25C11.8165 1.2575 11.135 1.33 10.465 1.467C10.5335 1.78 10.531 2.10438 10.4577 2.41628C10.3843 2.72818 10.242 3.01968 10.0412 3.26934C9.84034 3.519 9.58611 3.72048 9.29716 3.85895C9.00822 3.99742 8.69191 4.06937 8.3715 4.0695C8.01153 4.06592 7.65825 3.97181 7.34421 3.79583C7.03017 3.61985 6.76547 3.36766 6.5745 3.0625C5.37965 3.85554 4.35554 4.87965 3.5625 6.0745C4.1825 6.4625 4.5625 7.1395 4.5695 7.871C4.56923 8.43972 4.34313 8.98505 3.94089 9.3871C3.53865 9.78915 2.99322 10.015 2.4245 10.015C2.27168 10.007 2.12016 9.98268 1.9725 9.9425C1.83234 10.6196 1.75783 11.3086 1.75 12C1.75813 12.6914 1.83264 13.3804 1.9725 14.0575C2.12016 14.0173 2.27168 13.993 2.4245 13.985C2.99313 13.985 3.53849 14.2108 3.94071 14.6127C4.34294 15.0147 4.5691 15.5599 4.5695 16.1285C4.56592 16.4885 4.47181 16.8418 4.29583 17.1558C4.11985 17.4698 3.86766 17.7345 3.5625 17.9255C4.35549 19.1205 5.3796 20.1448 6.5745 20.938C6.76536 20.6328 7.02996 20.3806 7.34391 20.2045C7.65786 20.0284 8.01107 19.9342 8.371 19.9305C8.93972 19.9308 9.48505 20.1569 9.8871 20.5591C10.2891 20.9613 10.515 21.5068 10.515 22.0755C10.507 22.2283 10.4827 22.3798 10.4425 22.5275C11.1195 22.6675 11.8085 22.7425 12.5 22.75C13.1914 22.7422 13.8804 22.6677 14.5575 22.5275C14.5173 22.3798 14.493 22.2283 14.485 22.0755C14.485 21.5069 14.7108 20.9615 15.1127 20.5593C15.5147 20.1571 16.0599 19.9309 16.6285 19.9305C16.9885 19.9341 17.3418 20.0283 17.6559 20.2044C17.9699 20.3805 18.2346 20.6327 18.4255 20.938C19.6206 20.1449 20.6449 19.1206 21.438 17.9255C21.1328 17.7346 20.8806 17.47 20.7045 17.1561C20.5284 16.8421 20.4342 16.4889 20.4305 16.129C20.4308 15.5603 20.6569 15.015 21.0591 14.6129C21.4613 14.2109 22.0068 13.985 22.5755 13.985C22.7288 13.993 22.8795 14.0172 23.0275 14.0575C23.1675 13.3805 23.2425 12.6915 23.25 12C23.2489 11.3084 23.1811 10.6186 23.0475 9.94C22.8934 9.98246 22.7351 10.0076 22.5755 10.015C22.0069 10.015 21.4615 9.78922 21.0593 9.38727C20.6571 8.98533 20.4309 8.44013 20.4305 7.8715C20.4345 7.50764 20.531 7.15078 20.7109 6.83449C20.8909 6.5182 21.1483 6.25288 21.459 6.0635C20.6641 4.86388 19.6365 3.83607 18.437 3.041C18.2476 3.35172 17.9823 3.60915 17.666 3.78907C17.3497 3.96899 16.9929 4.0655 16.629 4.0695C16.0603 4.06923 15.515 3.84313 15.1129 3.44089C14.7109 3.03865 14.485 2.49322 14.485 1.9245C14.4924 1.76487 14.5175 1.60656 14.56 1.4525C13.8814 1.31889 13.1916 1.25108 12.5 1.25Z" stroke="#E0AA06" stroke-width="0.5" stroke-linecap="round" stroke-linejoin="round"/>
<path d="M17.6265 7.95391L15.4775 10.1029C15.4438 10.1367 15.4039 10.1635 15.3599 10.1818C15.3158 10.2001 15.2686 10.2095 15.221 10.2095C15.1733 10.2095 15.1261 10.2001 15.0821 10.1818C15.0381 10.1635 14.9981 10.1367 14.9645 10.1029L14.3935 9.53191C14.3597 9.49828 14.3329 9.4583 14.3146 9.41429C14.2963 9.37027 14.2869 9.32307 14.2869 9.27541C14.2869 9.22775 14.2963 9.18055 14.3146 9.13653C14.3329 9.09252 14.3597 9.05254 14.3935 9.01891L16.5355 6.87691C15.907 6.49142 15.1673 6.32819 14.4349 6.41342C13.7026 6.49865 13.0201 6.82739 12.497 7.34691C12.0602 7.78493 11.7558 8.33719 11.6186 8.94034C11.4815 9.54349 11.5171 10.1731 11.7215 10.7569L7.31648 15.1619C6.74848 15.7299 6.74098 16.6374 7.29998 17.1969C7.85898 17.7554 8.76648 17.7479 9.33498 17.1794L13.739 12.7754C14.3229 12.98 14.9527 13.0157 15.5561 12.8786C16.1594 12.7414 16.7119 12.4368 17.15 11.9999C17.6724 11.4771 18.0035 10.7936 18.0901 10.0596C18.1766 9.32563 18.0135 8.58387 17.627 7.95391" stroke="#E0AA06" stroke-width="0.5" stroke-linecap="round" stroke-linejoin="round"/>
</svg>
