<svg width="25" height="25" viewBox="0 0 25 25" fill="none" xmlns="http://www.w3.org/2000/svg">
<path d="M5.67069 20.4727C5.21002 20.4727 4.82569 20.3187 4.51769 20.0107C4.20969 19.7027 4.05535 19.318 4.05469 18.8567V6.08866C4.05469 5.62799 4.20902 5.24366 4.51769 4.93566C4.82635 4.62766 5.21035 4.47332 5.66969 4.47266H14.9777V5.47266H5.67069C5.51669 5.47266 5.37535 5.53666 5.24669 5.66466C5.11802 5.79266 5.05402 5.93399 5.05469 6.08866V18.8577C5.05469 19.011 5.11869 19.152 5.24669 19.2807C5.37469 19.4093 5.51569 19.4733 5.66969 19.4727H18.4397C18.593 19.4727 18.734 19.4087 18.8627 19.2807C18.9914 19.1527 19.0554 19.0117 19.0547 18.8577V9.54966H20.0547V18.8577C20.0547 19.3177 19.9007 19.702 19.5927 20.0107C19.2847 20.3193 18.9 20.4733 18.4387 20.4727H5.67069ZM8.55469 16.9727V15.9727H15.5547V16.9727H8.55469ZM8.55469 13.9727V12.9727H15.5547V13.9727H8.55469ZM8.55469 10.9727V9.97266H15.5547V10.9727H8.55469ZM18.0547 8.47266V6.47266H16.0547V5.47266H18.0547V3.47266H19.0547V5.47266H21.0547V6.47266H19.0547V8.47266H18.0547Z" fill="#E0AA06"/>
</svg>
