<svg width="25" height="25" viewBox="0 0 25 25" fill="none" xmlns="http://www.w3.org/2000/svg">
<path d="M15.5 4.01218C16.771 4.46356 17.9248 5.19395 18.8766 6.14969C19.8283 7.10544 20.5539 8.26226 21 9.53518M11.5 3.55518C9.98307 3.72448 8.53415 4.27679 7.28944 5.16016C6.04473 6.04354 5.04513 7.22896 4.38463 8.60496C3.72413 9.98096 3.42443 11.5023 3.5137 13.026C3.60298 14.5498 4.07829 16.0257 4.89497 17.3152L3.49997 21.5002L7.68497 20.1052C8.97442 20.9218 10.4504 21.3972 11.9741 21.4864C13.4978 21.5757 15.0192 21.276 16.3952 20.6155C17.7712 19.955 18.9566 18.9554 19.84 17.7107C20.7234 16.466 21.2757 15.0171 21.445 13.5002" stroke="#E0AA06" stroke-width="2" stroke-linecap="round" stroke-linejoin="round"/>
<path d="M12.5 17.5C11.1739 17.5 9.90215 16.9732 8.96447 16.0355C8.02678 15.0979 7.5 13.8261 7.5 12.5M9.5 8.50001C10.4629 7.77786 11.6539 7.42727 12.8544 7.51259C14.055 7.59791 15.1845 8.11342 16.0355 8.96447C16.8866 9.81553 17.4021 10.945 17.4874 12.1456C17.5727 13.3461 17.2221 14.5371 16.5 15.5" stroke="#E0AA06" stroke-width="2" stroke-linecap="round" stroke-linejoin="round"/>
<path d="M12.5 13.5C13.0523 13.5 13.5 13.0523 13.5 12.5C13.5 11.9477 13.0523 11.5 12.5 11.5C11.9477 11.5 11.5 11.9477 11.5 12.5C11.5 13.0523 11.9477 13.5 12.5 13.5Z" stroke="#E0AA06" stroke-width="2" stroke-linecap="round" stroke-linejoin="round"/>
</svg>
