<svg width="25" height="25" viewBox="0 0 25 25" fill="none" xmlns="http://www.w3.org/2000/svg">
<path d="M16.327 19.289C16.5137 19.289 16.6727 19.2233 16.804 19.092C16.9347 18.9613 17 18.8027 17 18.616C17 18.4287 16.9347 18.2697 16.804 18.139C16.6733 18.0077 16.5143 17.942 16.327 17.942C16.1397 17.942 15.9807 18.0077 15.85 18.139C15.7193 18.2703 15.654 18.4293 15.654 18.616C15.654 18.8027 15.7193 18.9613 15.85 19.092C15.9807 19.2233 16.1397 19.289 16.327 19.289ZM18.5 19.289C18.6867 19.289 18.8457 19.2233 18.977 19.092C19.1077 18.9613 19.173 18.8027 19.173 18.616C19.173 18.4287 19.1077 18.2697 18.977 18.139C18.8463 18.0077 18.6873 17.942 18.5 17.942C18.3127 17.942 18.1537 18.0077 18.023 18.139C17.8923 18.2703 17.827 18.4293 17.827 18.616C17.827 18.8027 17.8923 18.9613 18.023 19.092C18.1537 19.2233 18.3127 19.289 18.5 19.289ZM20.673 19.289C20.8597 19.289 21.0187 19.2233 21.15 19.092C21.2807 18.9613 21.346 18.8027 21.346 18.616C21.346 18.4287 21.2807 18.2697 21.15 18.139C21.0193 18.0077 20.8603 17.942 20.673 17.942C20.4857 17.942 20.3267 18.0077 20.196 18.139C20.0653 18.2703 20 18.4293 20 18.616C20 18.8027 20.0653 18.9613 20.196 19.092C20.3267 19.2233 20.4857 19.289 20.673 19.289ZM6.116 20.5C5.668 20.5 5.28667 20.3427 4.972 20.028C4.65733 19.7133 4.5 19.3323 4.5 18.885V6.115C4.5 5.66833 4.65733 5.28733 4.972 4.972C5.28667 4.65733 5.668 4.5 6.116 4.5H18.885C19.3317 4.5 19.7127 4.65733 20.028 4.972C20.3427 5.28667 20.5 5.668 20.5 6.116V12.066C20.3247 12.0053 20.1567 11.956 19.996 11.918C19.836 11.8807 19.6707 11.8433 19.5 11.806V6.116C19.5 5.962 19.436 5.82067 19.308 5.692C19.18 5.56333 19.0387 5.49933 18.884 5.5H6.116C5.962 5.5 5.82067 5.564 5.692 5.692C5.56333 5.82 5.49933 5.96133 5.5 6.116V18.885C5.5 19.0383 5.564 19.1793 5.692 19.308C5.82 19.4367 5.961 19.5007 6.115 19.5H11.781C11.805 19.6867 11.836 19.8603 11.874 20.021C11.912 20.181 11.961 20.3407 12.021 20.5H6.116ZM5.5 18.5V19.5V5.5V11.806V11.731V18.5ZM8 16.77H11.96C11.9967 16.5987 12.0467 16.433 12.11 16.273L12.31 15.769H8V16.77ZM8 13H14.58C14.9087 12.7693 15.2323 12.574 15.551 12.414C15.8697 12.2533 16.2117 12.1273 16.577 12.036V12H8V13ZM8 9.23H17V8.23H8V9.23ZM18.5 22.617C17.386 22.617 16.441 22.2287 15.665 21.452C14.8883 20.6753 14.5 19.73 14.5 18.616C14.5 17.502 14.8883 16.5567 15.665 15.78C16.4417 15.0033 17.3867 14.6153 18.5 14.616C19.6133 14.6167 20.5587 15.0047 21.336 15.78C22.1133 16.5553 22.5013 17.5007 22.5 18.616C22.5 19.7293 22.112 20.6743 21.336 21.451C20.5587 22.2277 19.6133 22.616 18.5 22.616" fill="#E0AA06"/>
</svg>
