<svg width="25" height="25" viewBox="0 0 25 25" fill="none" xmlns="http://www.w3.org/2000/svg">
<path d="M16.3817 19.2617C16.5684 19.2617 16.7274 19.196 16.8587 19.0647C16.9894 18.934 17.0547 18.7753 17.0547 18.5887C17.0547 18.4013 16.9894 18.2423 16.8587 18.1117C16.728 17.9803 16.569 17.9147 16.3817 17.9147C16.1944 17.9147 16.0354 17.9803 15.9047 18.1117C15.774 18.243 15.7087 18.402 15.7087 18.5887C15.7087 18.7753 15.774 18.934 15.9047 19.0647C16.0354 19.196 16.1944 19.2617 16.3817 19.2617ZM18.5547 19.2617C18.7414 19.2617 18.9004 19.196 19.0317 19.0647C19.1624 18.934 19.2277 18.7753 19.2277 18.5887C19.2277 18.4013 19.1624 18.2423 19.0317 18.1117C18.901 17.9803 18.742 17.9147 18.5547 17.9147C18.3674 17.9147 18.2084 17.9803 18.0777 18.1117C17.947 18.243 17.8817 18.402 17.8817 18.5887C17.8817 18.7753 17.947 18.934 18.0777 19.0647C18.2084 19.196 18.3674 19.2617 18.5547 19.2617ZM20.7277 19.2617C20.9144 19.2617 21.0734 19.196 21.2047 19.0647C21.3354 18.934 21.4007 18.7753 21.4007 18.5887C21.4007 18.4013 21.3354 18.2423 21.2047 18.1117C21.074 17.9803 20.915 17.9147 20.7277 17.9147C20.5404 17.9147 20.3814 17.9803 20.2507 18.1117C20.12 18.243 20.0547 18.402 20.0547 18.5887C20.0547 18.7753 20.12 18.934 20.2507 19.0647C20.3814 19.196 20.5404 19.2617 20.7277 19.2617ZM6.17069 20.4727C5.72269 20.4727 5.34135 20.3153 5.02669 20.0007C4.71202 19.686 4.55469 19.305 4.55469 18.8577V6.08766C4.55469 5.64099 4.71202 5.25999 5.02669 4.94466C5.34135 4.62999 5.72269 4.47266 6.17069 4.47266H18.9397C19.3864 4.47266 19.7674 4.62999 20.0827 4.94466C20.3974 5.25932 20.5547 5.64066 20.5547 6.08866V12.0387C20.3794 11.978 20.2114 11.9287 20.0507 11.8907C19.8907 11.8533 19.7254 11.816 19.5547 11.7787V6.08866C19.5547 5.93466 19.4907 5.79332 19.3627 5.66466C19.2347 5.53599 19.0934 5.47199 18.9387 5.47266H6.17069C6.01669 5.47266 5.87535 5.53666 5.74669 5.66466C5.61802 5.79266 5.55402 5.93399 5.55469 6.08866V18.8577C5.55469 19.011 5.61869 19.152 5.74669 19.2807C5.87469 19.4093 6.01569 19.4733 6.16969 19.4727H11.8357C11.8597 19.6593 11.8907 19.833 11.9287 19.9937C11.9667 20.1537 12.0157 20.3133 12.0757 20.4727H6.17069ZM5.55469 18.4727V19.4727V5.47266V11.7787V11.7037V18.4727ZM8.05469 16.7427H12.0147C12.0514 16.5713 12.1014 16.4057 12.1647 16.2457L12.3647 15.7417H8.05469V16.7427ZM8.05469 12.9727H14.6347C14.9634 12.742 15.287 12.5467 15.6057 12.3867C15.9244 12.226 16.2664 12.1 16.6317 12.0087V11.9727H8.05469V12.9727ZM8.05469 9.20266H17.0547V8.20266H8.05469V9.20266ZM18.5547 22.5897C17.4407 22.5897 16.4957 22.2013 15.7197 21.4247C14.943 20.648 14.5547 19.7027 14.5547 18.5887C14.5547 17.4747 14.943 16.5293 15.7197 15.7527C16.4964 14.976 17.4414 14.588 18.5547 14.5887C19.668 14.5893 20.6134 14.9773 21.3907 15.7527C22.168 16.528 22.556 17.4733 22.5547 18.5887C22.5547 19.702 22.1667 20.647 21.3907 21.4237C20.6134 22.2003 19.668 22.5887 18.5547 22.5887" fill="#E0AA06"/>
</svg>
