<svg width="25" height="25" viewBox="0 0 25 25" fill="none" xmlns="http://www.w3.org/2000/svg">
<path d="M12.515 14.9902C11.93 14.9902 11.3525 15.0502 10.79 15.1627V22.9477H14.225V15.1627C13.67 15.0502 13.1 14.9902 12.515 14.9902Z" fill="url(#paint0_radial_11_12508)"/>
<path d="M12.515 14.9902C11.93 14.9902 11.3525 15.0502 10.79 15.1627V22.9477H14.225V15.1627C13.67 15.0502 13.1 14.9902 12.515 14.9902Z" fill="url(#paint1_radial_11_12508)"/>
<path d="M10.79 14.8989C10.3348 14.9994 9.89377 15.1314 9.46777 15.3017V22.9479H10.7908L10.79 14.8989Z" fill="url(#paint2_radial_11_12508)"/>
<path d="M10.79 14.8989C10.3348 14.9994 9.89377 15.1314 9.46777 15.3017V22.9479H10.7908L10.79 14.8989Z" fill="url(#paint3_radial_11_12508)"/>
<path d="M10.79 14.8989C10.3348 14.9994 9.89377 15.1314 9.46777 15.3017V22.9479H10.7908L10.79 14.8989Z" fill="url(#paint4_radial_11_12508)"/>
<path d="M14.2101 14.8989C14.6653 14.9994 15.1063 15.1314 15.5316 15.3017V22.9479H14.2101V14.8989Z" fill="url(#paint5_radial_11_12508)"/>
<path d="M14.2101 14.8989C14.6653 14.9994 15.1063 15.1314 15.5316 15.3017V22.9479H14.2101V14.8989Z" fill="url(#paint6_radial_11_12508)"/>
<path d="M6.79186 17.0136C6.7806 17.0241 6.77159 17.0367 6.7654 17.0508C6.75921 17.0648 6.75596 17.08 6.75586 17.0954V22.9476H7.98136V16.0776C7.56136 16.3551 7.16236 16.6701 6.79186 17.0136Z" fill="url(#paint7_linear_11_12508)"/>
<path d="M6.79186 17.0136C6.7806 17.0241 6.77159 17.0367 6.7654 17.0508C6.75921 17.0648 6.75596 17.08 6.75586 17.0954V22.9476H7.98136V16.0776C7.56136 16.3551 7.16236 16.6701 6.79186 17.0136Z" fill="url(#paint8_radial_11_12508)"/>
<path d="M6.79186 17.0136C6.7806 17.0241 6.77159 17.0367 6.7654 17.0508C6.75921 17.0648 6.75596 17.08 6.75586 17.0954V22.9476H7.98136V16.0776C7.56136 16.3551 7.16236 16.6701 6.79186 17.0136Z" fill="url(#paint9_radial_11_12508)"/>
<path d="M18.245 17.0466V22.9476H17.0188V16.0776C17.4523 16.3641 17.864 16.6896 18.245 17.0466Z" fill="url(#paint10_radial_11_12508)"/>
<path d="M18.245 17.0466V22.9476H17.0188V16.0776C17.4523 16.3641 17.864 16.6896 18.245 17.0466Z" fill="url(#paint11_radial_11_12508)"/>
<path d="M7.98132 16.0775V22.9475H9.46857V15.3013C8.94507 15.5113 8.45232 15.7663 7.98132 16.0768" fill="#FFCA44"/>
<path d="M7.98132 16.0775V22.9475H9.46857V15.3013C8.94507 15.5113 8.45232 15.7663 7.98132 16.0768" fill="url(#paint12_radial_11_12508)"/>
<path d="M17.0188 16.0775V22.9475H15.5323V15.3013C16.0551 15.5113 16.5478 15.7663 17.0188 16.0768" fill="url(#paint13_linear_11_12508)"/>
<path d="M17.0188 16.0775V22.9475H15.5323V15.3013C16.0551 15.5113 16.5478 15.7663 17.0188 16.0768" fill="url(#paint14_radial_11_12508)"/>
<path d="M3.95081 22.9475C4.05581 22.2373 4.20581 21.536 4.41581 20.8572C4.8566 19.4212 5.66294 18.1244 6.75581 17.0938V22.9468L3.95081 22.9475Z" fill="url(#paint15_radial_11_12508)"/>
<path d="M3.95081 22.9475C4.05581 22.2373 4.20581 21.536 4.41581 20.8572C4.8566 19.4212 5.66294 18.1244 6.75581 17.0938V22.9468L3.95081 22.9475Z" fill="url(#paint16_linear_11_12508)"/>
<path d="M21.0493 22.9475C20.9443 22.2373 20.7943 21.536 20.5843 20.8572C20.1435 19.4212 19.3371 18.1244 18.2443 17.0938V22.9468L21.0493 22.9475Z" fill="url(#paint17_radial_11_12508)"/>
<path d="M21.0493 22.9475C20.9443 22.2373 20.7943 21.536 20.5843 20.8572C20.1435 19.4212 19.3371 18.1244 18.2443 17.0938V22.9468L21.0493 22.9475Z" fill="url(#paint18_radial_11_12508)"/>
<path d="M10.8575 15.8047C10.9025 16.3747 11.2963 17.5162 12.5158 17.5162C13.7353 17.5162 14.129 16.3754 14.1733 15.8047H10.8575Z" fill="url(#paint19_radial_11_12508)"/>
<path d="M10.8575 15.8047C10.9025 16.3747 11.2963 17.5162 12.5158 17.5162C13.7353 17.5162 14.129 16.3754 14.1733 15.8047H10.8575Z" fill="url(#paint20_radial_11_12508)"/>
<path d="M10.8575 15.8047C10.9025 16.3747 11.2963 17.5162 12.5158 17.5162C13.7353 17.5162 14.129 16.3754 14.1733 15.8047H10.8575Z" fill="url(#paint21_radial_11_12508)"/>
<path d="M7.75781 9.21582H8.47256V10.0273H7.75781V9.21582Z" fill="#2F2728"/>
<path d="M16.4976 9.21582H17.1246V10.0273H16.4976V9.21582Z" fill="#2A282B"/>
<path d="M16.445 12.1521C16.7165 12.1431 16.97 12.0516 17.177 11.9023V12.6553C17.177 13.3768 16.7465 14.0203 16.0925 14.2873C16.231 13.9933 16.3243 13.6753 16.3723 13.3333L16.445 12.1521Z" fill="url(#paint22_radial_11_12508)"/>
<path d="M8.5866 12.1521C8.32347 12.1432 8.06894 12.0563 7.85535 11.9023V12.6553C7.85535 13.3768 8.2851 14.0203 8.9391 14.2873C8.79821 13.9853 8.70389 13.6636 8.65935 13.3333L8.5866 12.1521Z" fill="url(#paint23_radial_11_12508)"/>
<g filter="url(#filter0_ii_11_12508)">
<path d="M8.61583 13.3771C8.71599 14.139 9.08993 14.8384 9.6679 15.3449C10.2459 15.8514 10.9884 16.1303 11.7568 16.1296H13.2816C14.0501 16.1303 14.7925 15.8514 15.3705 15.3449C15.9485 14.8384 16.3224 14.139 16.4226 13.3771C16.5186 11.8546 16.6138 10.3373 16.6851 8.81556C16.6821 8.51672 16.565 8.23033 16.3576 8.01514C16.1502 7.79995 15.8684 7.67228 15.5698 7.65831H14.4381C14.0592 7.65762 13.6886 7.547 13.3714 7.33985C13.0541 7.1327 12.8038 6.83793 12.6508 6.49131C12.6107 6.392 12.5419 6.30689 12.4532 6.24679C12.3645 6.18669 12.26 6.15432 12.1528 6.15381H11.1238C9.63208 6.15381 8.42383 7.37631 8.42383 8.88531C8.42383 10.3891 8.51758 11.8688 8.61583 13.3771Z" fill="url(#paint24_radial_11_12508)"/>
</g>
<path d="M8.61583 13.3771C8.71599 14.139 9.08993 14.8384 9.6679 15.3449C10.2459 15.8514 10.9884 16.1303 11.7568 16.1296H13.2816C14.0501 16.1303 14.7925 15.8514 15.3705 15.3449C15.9485 14.8384 16.3224 14.139 16.4226 13.3771C16.5186 11.8546 16.6138 10.3373 16.6851 8.81556C16.6821 8.51672 16.565 8.23033 16.3576 8.01514C16.1502 7.79995 15.8684 7.67228 15.5698 7.65831H14.4381C14.0592 7.65762 13.6886 7.547 13.3714 7.33985C13.0541 7.1327 12.8038 6.83793 12.6508 6.49131C12.6107 6.392 12.5419 6.30689 12.4532 6.24679C12.3645 6.18669 12.26 6.15432 12.1528 6.15381H11.1238C9.63208 6.15381 8.42383 7.37631 8.42383 8.88531C8.42383 10.3891 8.51758 11.8688 8.61583 13.3771Z" fill="url(#paint25_linear_11_12508)"/>
<path d="M8.61583 13.3771C8.71599 14.139 9.08993 14.8384 9.6679 15.3449C10.2459 15.8514 10.9884 16.1303 11.7568 16.1296H13.2816C14.0501 16.1303 14.7925 15.8514 15.3705 15.3449C15.9485 14.8384 16.3224 14.139 16.4226 13.3771C16.5186 11.8546 16.6138 10.3373 16.6851 8.81556C16.6821 8.51672 16.565 8.23033 16.3576 8.01514C16.1502 7.79995 15.8684 7.67228 15.5698 7.65831H14.4381C14.0592 7.65762 13.6886 7.547 13.3714 7.33985C13.0541 7.1327 12.8038 6.83793 12.6508 6.49131C12.6107 6.392 12.5419 6.30689 12.4532 6.24679C12.3645 6.18669 12.26 6.15432 12.1528 6.15381H11.1238C9.63208 6.15381 8.42383 7.37631 8.42383 8.88531C8.42383 10.3891 8.51758 11.8688 8.61583 13.3771Z" fill="url(#paint26_radial_11_12508)"/>
<path d="M8.61583 13.3771C8.71599 14.139 9.08993 14.8384 9.6679 15.3449C10.2459 15.8514 10.9884 16.1303 11.7568 16.1296H13.2816C14.0501 16.1303 14.7925 15.8514 15.3705 15.3449C15.9485 14.8384 16.3224 14.139 16.4226 13.3771C16.5186 11.8546 16.6138 10.3373 16.6851 8.81556C16.6821 8.51672 16.565 8.23033 16.3576 8.01514C16.1502 7.79995 15.8684 7.67228 15.5698 7.65831H14.4381C14.0592 7.65762 13.6886 7.547 13.3714 7.33985C13.0541 7.1327 12.8038 6.83793 12.6508 6.49131C12.6107 6.392 12.5419 6.30689 12.4532 6.24679C12.3645 6.18669 12.26 6.15432 12.1528 6.15381H11.1238C9.63208 6.15381 8.42383 7.37631 8.42383 8.88531C8.42383 10.3891 8.51758 11.8688 8.61583 13.3771Z" fill="url(#paint27_radial_11_12508)"/>
<path d="M8.61583 13.3771C8.71599 14.139 9.08993 14.8384 9.6679 15.3449C10.2459 15.8514 10.9884 16.1303 11.7568 16.1296H13.2816C14.0501 16.1303 14.7925 15.8514 15.3705 15.3449C15.9485 14.8384 16.3224 14.139 16.4226 13.3771C16.5186 11.8546 16.6138 10.3373 16.6851 8.81556C16.6821 8.51672 16.565 8.23033 16.3576 8.01514C16.1502 7.79995 15.8684 7.67228 15.5698 7.65831H14.4381C14.0592 7.65762 13.6886 7.547 13.3714 7.33985C13.0541 7.1327 12.8038 6.83793 12.6508 6.49131C12.6107 6.392 12.5419 6.30689 12.4532 6.24679C12.3645 6.18669 12.26 6.15432 12.1528 6.15381H11.1238C9.63208 6.15381 8.42383 7.37631 8.42383 8.88531C8.42383 10.3891 8.51758 11.8688 8.61583 13.3771Z" fill="url(#paint28_radial_11_12508)"/>
<path d="M8.61583 13.3771C8.71599 14.139 9.08993 14.8384 9.6679 15.3449C10.2459 15.8514 10.9884 16.1303 11.7568 16.1296H13.2816C14.0501 16.1303 14.7925 15.8514 15.3705 15.3449C15.9485 14.8384 16.3224 14.139 16.4226 13.3771C16.5186 11.8546 16.6138 10.3373 16.6851 8.81556C16.6821 8.51672 16.565 8.23033 16.3576 8.01514C16.1502 7.79995 15.8684 7.67228 15.5698 7.65831H14.4381C14.0592 7.65762 13.6886 7.547 13.3714 7.33985C13.0541 7.1327 12.8038 6.83793 12.6508 6.49131C12.6107 6.392 12.5419 6.30689 12.4532 6.24679C12.3645 6.18669 12.26 6.15432 12.1528 6.15381H11.1238C9.63208 6.15381 8.42383 7.37631 8.42383 8.88531C8.42383 10.3891 8.51758 11.8688 8.61583 13.3771Z" fill="url(#paint29_radial_11_12508)"/>
<path d="M8.61583 13.3771C8.71599 14.139 9.08993 14.8384 9.6679 15.3449C10.2459 15.8514 10.9884 16.1303 11.7568 16.1296H13.2816C14.0501 16.1303 14.7925 15.8514 15.3705 15.3449C15.9485 14.8384 16.3224 14.139 16.4226 13.3771C16.5186 11.8546 16.6138 10.3373 16.6851 8.81556C16.6821 8.51672 16.565 8.23033 16.3576 8.01514C16.1502 7.79995 15.8684 7.67228 15.5698 7.65831H14.4381C14.0592 7.65762 13.6886 7.547 13.3714 7.33985C13.0541 7.1327 12.8038 6.83793 12.6508 6.49131C12.6107 6.392 12.5419 6.30689 12.4532 6.24679C12.3645 6.18669 12.26 6.15432 12.1528 6.15381H11.1238C9.63208 6.15381 8.42383 7.37631 8.42383 8.88531C8.42383 10.3891 8.51758 11.8688 8.61583 13.3771Z" fill="url(#paint30_radial_11_12508)"/>
<path d="M8.61583 13.3771C8.71599 14.139 9.08993 14.8384 9.6679 15.3449C10.2459 15.8514 10.9884 16.1303 11.7568 16.1296H13.2816C14.0501 16.1303 14.7925 15.8514 15.3705 15.3449C15.9485 14.8384 16.3224 14.139 16.4226 13.3771C16.5186 11.8546 16.6138 10.3373 16.6851 8.81556C16.6821 8.51672 16.565 8.23033 16.3576 8.01514C16.1502 7.79995 15.8684 7.67228 15.5698 7.65831H14.4381C14.0592 7.65762 13.6886 7.547 13.3714 7.33985C13.0541 7.1327 12.8038 6.83793 12.6508 6.49131C12.6107 6.392 12.5419 6.30689 12.4532 6.24679C12.3645 6.18669 12.26 6.15432 12.1528 6.15381H11.1238C9.63208 6.15381 8.42383 7.37631 8.42383 8.88531C8.42383 10.3891 8.51758 11.8688 8.61583 13.3771Z" fill="url(#paint31_radial_11_12508)"/>
<path d="M8.61583 13.3771C8.71599 14.139 9.08993 14.8384 9.6679 15.3449C10.2459 15.8514 10.9884 16.1303 11.7568 16.1296H13.2816C14.0501 16.1303 14.7925 15.8514 15.3705 15.3449C15.9485 14.8384 16.3224 14.139 16.4226 13.3771C16.5186 11.8546 16.6138 10.3373 16.6851 8.81556C16.6821 8.51672 16.565 8.23033 16.3576 8.01514C16.1502 7.79995 15.8684 7.67228 15.5698 7.65831H14.4381C14.0592 7.65762 13.6886 7.547 13.3714 7.33985C13.0541 7.1327 12.8038 6.83793 12.6508 6.49131C12.6107 6.392 12.5419 6.30689 12.4532 6.24679C12.3645 6.18669 12.26 6.15432 12.1528 6.15381H11.1238C9.63208 6.15381 8.42383 7.37631 8.42383 8.88531C8.42383 10.3891 8.51758 11.8688 8.61583 13.3771Z" fill="url(#paint32_linear_11_12508)"/>
<g filter="url(#filter1_f_11_12508)">
<path d="M12.1918 10.7184L11.7141 12.2042C11.6323 12.5102 11.8281 12.8162 12.1056 12.8162H12.6973C12.9748 12.8162 13.1698 12.5057 13.0888 12.2042L12.6891 10.7192C12.6036 10.3892 12.2811 10.3892 12.1918 10.7192" fill="#D69790"/>
</g>
<g filter="url(#filter2_f_11_12508)">
<path d="M12.2075 10.5645L11.777 12.0495C11.6893 12.3563 11.9 12.6615 12.1978 12.6615H12.8338C13.1315 12.6615 13.3423 12.351 13.2545 12.0503L12.8248 10.5638C12.7333 10.2353 12.3035 10.2353 12.2068 10.5638" fill="#DFA598"/>
<path d="M12.2075 10.5645L11.777 12.0495C11.6893 12.3563 11.9 12.6615 12.1978 12.6615H12.8338C13.1315 12.6615 13.3423 12.351 13.2545 12.0503L12.8248 10.5638C12.7333 10.2353 12.3035 10.2353 12.2068 10.5638" fill="url(#paint33_linear_11_12508)"/>
<path d="M12.2075 10.5645L11.777 12.0495C11.6893 12.3563 11.9 12.6615 12.1978 12.6615H12.8338C13.1315 12.6615 13.3423 12.351 13.2545 12.0503L12.8248 10.5638C12.7333 10.2353 12.3035 10.2353 12.2068 10.5638" fill="url(#paint34_radial_11_12508)"/>
<path d="M12.2075 10.5645L11.777 12.0495C11.6893 12.3563 11.9 12.6615 12.1978 12.6615H12.8338C13.1315 12.6615 13.3423 12.351 13.2545 12.0503L12.8248 10.5638C12.7333 10.2353 12.3035 10.2353 12.2068 10.5638" fill="url(#paint35_linear_11_12508)"/>
</g>
<g filter="url(#filter3_f_11_12508)">
<path d="M12.269 10.5645L11.8393 12.0495C11.7515 12.3563 11.9623 12.6615 12.26 12.6615H12.896C13.1938 12.6615 13.4045 12.351 13.316 12.0503L12.887 10.5638C12.7948 10.2353 12.365 10.236 12.269 10.5645Z" fill="url(#paint36_linear_11_12508)"/>
</g>
<g filter="url(#filter4_f_11_12508)">
<path d="M11.4223 13.1675C11.3874 13.1496 11.3469 13.1437 11.3083 13.1504C11.2698 13.1572 11.2345 13.1764 11.2078 13.205C11.1798 13.2325 11.1626 13.269 11.1592 13.3081C11.1558 13.3471 11.1663 13.3861 11.189 13.418C11.3345 13.6366 11.5319 13.8157 11.7636 13.9394C11.9952 14.063 12.2539 14.1274 12.5165 14.1268C13.073 14.1268 13.562 13.8433 13.8425 13.4173C13.8649 13.3849 13.8752 13.3458 13.8718 13.3066C13.8684 13.2675 13.8514 13.2307 13.8238 13.2028C13.7968 13.1745 13.7613 13.1557 13.7228 13.1494C13.6842 13.143 13.6446 13.1494 13.61 13.1675C13.2943 13.3325 12.9215 13.427 12.5158 13.427C12.1357 13.4294 11.7607 13.3404 11.4223 13.1675Z" stroke="url(#paint37_linear_11_12508)" stroke-width="0.075"/>
</g>
<path d="M12.5158 13.4827C12.1267 13.4854 11.7427 13.3946 11.3961 13.218C11.2851 13.161 11.1666 13.2855 11.2363 13.3867C11.5063 13.797 11.9788 14.0707 12.5158 14.0707C12.7692 14.0716 13.0188 14.0096 13.2422 13.8902C13.4657 13.7708 13.656 13.5978 13.7961 13.3867C13.8658 13.2817 13.7466 13.1617 13.6356 13.218C13.3116 13.3867 12.9306 13.4835 12.5158 13.4835" fill="url(#paint38_radial_11_12508)"/>
<path d="M14.4486 9.7959C14.9766 9.7959 15.4229 10.1596 15.5436 10.6516C15.5519 10.6844 15.5525 10.7186 15.5455 10.7516C15.5384 10.7847 15.524 10.8157 15.5031 10.8422C15.4823 10.8688 15.4556 10.8903 15.4252 10.9049C15.3948 10.9196 15.3614 10.9271 15.3276 10.9269H13.5239C13.4966 10.927 13.4696 10.9211 13.4449 10.9096C13.4201 10.8981 13.3982 10.8814 13.3807 10.8605C13.3631 10.8396 13.3504 10.8151 13.3434 10.7887C13.3364 10.7623 13.3353 10.7347 13.3401 10.7079C13.3911 10.4512 13.5293 10.2201 13.7314 10.0538C13.9335 9.88758 14.1869 9.79644 14.4486 9.7959Z" fill="white"/>
<path d="M14.2813 10.0156C14.3922 10.0157 14.5017 10.0414 14.6011 10.0907C14.7005 10.1399 14.7872 10.2115 14.8544 10.2997C14.9217 10.3879 14.9677 10.4905 14.9889 10.5994C15.01 10.7083 15.0058 10.8206 14.9765 10.9276H13.583C13.5543 10.8204 13.5506 10.708 13.5722 10.5992C13.5938 10.4903 13.6401 10.3878 13.7076 10.2997C13.7751 10.2116 13.8619 10.1401 13.9614 10.0909C14.0608 10.0416 14.1703 10.0159 14.2813 10.0156Z" fill="url(#paint39_radial_11_12508)"/>
<path d="M13.8681 10.7372C13.8681 10.5077 14.0518 10.3247 14.2813 10.3247C14.3523 10.3244 14.4222 10.3425 14.4842 10.3772C14.5462 10.4118 14.5982 10.4619 14.6352 10.5225C14.6721 10.5832 14.6928 10.6523 14.6952 10.7233C14.6976 10.7943 14.6816 10.8647 14.6488 10.9277H13.9176C13.8844 10.8698 13.8673 10.804 13.8681 10.7372Z" fill="black"/>
<g filter="url(#filter5_f_11_12508)">
<path d="M14.2288 10.1678C14.2798 10.2368 14.1726 10.3208 14.0503 10.4123C13.9281 10.503 13.8373 10.5675 13.7863 10.4993C13.7346 10.4303 13.7923 10.3005 13.9138 10.209C14.0361 10.1175 14.1763 10.0995 14.2288 10.1678Z" fill="#C7A7A3"/>
<path d="M14.2288 10.1678C14.2798 10.2368 14.1726 10.3208 14.0503 10.4123C13.9281 10.503 13.8373 10.5675 13.7863 10.4993C13.7346 10.4303 13.7923 10.3005 13.9138 10.209C14.0361 10.1175 14.1763 10.0995 14.2288 10.1678Z" fill="url(#paint40_radial_11_12508)"/>
</g>
<g filter="url(#filter6_f_11_12508)">
<path d="M14.9241 10.6418C14.9028 10.5004 14.8372 10.3693 14.7366 10.2676L14.5266 10.4986L14.6219 10.6831L14.9241 10.6418Z" fill="url(#paint41_linear_11_12508)"/>
</g>
<path d="M10.583 9.7959C10.055 9.7959 9.6088 10.1596 9.48805 10.6516C9.47996 10.6844 9.47944 10.7185 9.48652 10.7515C9.4936 10.7845 9.5081 10.8154 9.52892 10.8419C9.54974 10.8685 9.57633 10.8899 9.60668 10.9046C9.63702 10.9194 9.67032 10.927 9.70405 10.9269H11.5078C11.6225 10.9269 11.7148 10.8219 11.6915 10.7079C11.6406 10.4512 11.5023 10.2201 11.3002 10.0538C11.0982 9.88758 10.8447 9.79644 10.583 9.7959Z" fill="white"/>
<path d="M10.7503 10.0156C10.6393 10.0157 10.5299 10.0414 10.4305 10.0907C10.3311 10.1399 10.2444 10.2115 10.1771 10.2997C10.1099 10.3879 10.0639 10.4905 10.0427 10.5994C10.0215 10.7083 10.0257 10.8206 10.055 10.9276H11.45C11.4667 10.8655 11.4752 10.8015 11.4755 10.7371C11.4739 10.5457 11.397 10.3627 11.2614 10.2276C11.1258 10.0926 10.9424 10.0164 10.751 10.0156" fill="url(#paint42_radial_11_12508)"/>
<path d="M11.1636 10.7377C11.1638 10.6834 11.1532 10.6296 11.1326 10.5794C11.112 10.5292 11.0816 10.4835 11.0433 10.4451C11.005 10.4066 10.9594 10.3761 10.9093 10.3553C10.8591 10.3345 10.8054 10.3237 10.7511 10.3237C10.6799 10.3234 10.6099 10.3414 10.5478 10.3761C10.4857 10.4108 10.4337 10.461 10.3967 10.5218C10.3597 10.5825 10.3391 10.6518 10.3368 10.7229C10.3345 10.794 10.3506 10.8645 10.3836 10.9275H11.1141C11.1457 10.8689 11.1627 10.8043 11.1636 10.7377Z" fill="black"/>
<g filter="url(#filter7_f_11_12508)">
<path d="M11.4095 10.6523C11.4095 10.419 11.2198 10.2638 11.1688 10.2173L10.9363 10.4423L11.0788 10.7348L11.4095 10.6523Z" fill="url(#paint43_linear_11_12508)"/>
</g>
<g filter="url(#filter8_f_11_12508)">
<path d="M10.6076 10.4649C10.7613 10.3835 10.8525 10.2543 10.8112 10.1763C10.7699 10.0983 10.6118 10.1012 10.458 10.1826C10.3043 10.2641 10.2132 10.3933 10.2545 10.4712C10.2958 10.5492 10.4539 10.5464 10.6076 10.4649Z" fill="#C7A7A3" fill-opacity="0.9"/>
<path d="M10.6076 10.4649C10.7613 10.3835 10.8525 10.2543 10.8112 10.1763C10.7699 10.0983 10.6118 10.1012 10.458 10.1826C10.3043 10.2641 10.2132 10.3933 10.2545 10.4712C10.2958 10.5492 10.4539 10.5464 10.6076 10.4649Z" fill="url(#paint44_radial_11_12508)"/>
</g>
<path d="M16.4945 12.2255C16.547 11.3653 16.5995 10.5058 16.6438 9.64551C16.9574 9.70135 17.2396 9.8703 17.437 10.1203C17.6344 10.3704 17.7332 10.6841 17.7147 11.0021C17.6962 11.3201 17.5617 11.6203 17.3367 11.8458C17.1117 12.0713 16.8125 12.2064 16.4945 12.2255Z" fill="url(#paint45_linear_11_12508)"/>
<path d="M16.4945 12.2255C16.547 11.3653 16.5995 10.5058 16.6438 9.64551C16.9574 9.70135 17.2396 9.8703 17.437 10.1203C17.6344 10.3704 17.7332 10.6841 17.7147 11.0021C17.6962 11.3201 17.5617 11.6203 17.3367 11.8458C17.1117 12.0713 16.8125 12.2064 16.4945 12.2255Z" fill="url(#paint46_radial_11_12508)"/>
<path d="M16.4945 12.2255C16.547 11.3653 16.5995 10.5058 16.6438 9.64551C16.9574 9.70135 17.2396 9.8703 17.437 10.1203C17.6344 10.3704 17.7332 10.6841 17.7147 11.0021C17.6962 11.3201 17.5617 11.6203 17.3367 11.8458C17.1117 12.0713 16.8125 12.2064 16.4945 12.2255Z" fill="url(#paint47_radial_11_12508)"/>
<path d="M16.4945 12.2255C16.547 11.3653 16.5995 10.5058 16.6438 9.64551C16.9574 9.70135 17.2396 9.8703 17.437 10.1203C17.6344 10.3704 17.7332 10.6841 17.7147 11.0021C17.6962 11.3201 17.5617 11.6203 17.3367 11.8458C17.1117 12.0713 16.8125 12.2064 16.4945 12.2255Z" fill="url(#paint48_radial_11_12508)"/>
<path d="M8.43811 9.63893C7.80661 9.72743 7.31311 10.2704 7.31311 10.9267C7.31311 11.6212 7.85761 12.1889 8.54311 12.2257C8.49039 11.364 8.45538 10.5013 8.43811 9.63818" fill="url(#paint49_linear_11_12508)"/>
<path d="M8.43811 9.63893C7.80661 9.72743 7.31311 10.2704 7.31311 10.9267C7.31311 11.6212 7.85761 12.1889 8.54311 12.2257C8.49039 11.364 8.45538 10.5013 8.43811 9.63818" fill="url(#paint50_radial_11_12508)"/>
<g filter="url(#filter9_f_11_12508)">
<path d="M8.405 10.1729C8.22851 10.213 8.07173 10.3138 7.962 10.4578C7.85227 10.6017 7.79656 10.7796 7.8046 10.9604C7.81263 11.1412 7.8839 11.3135 8.00597 11.4471C8.12804 11.5807 8.29315 11.6673 8.4725 11.6916C8.44389 11.1856 8.42139 10.6794 8.405 10.1729Z" fill="url(#paint51_radial_11_12508)"/>
</g>
<g filter="url(#filter10_f_11_12508)">
<path d="M16.562 11.705C16.5935 11.192 16.6235 10.679 16.652 10.166C16.8465 10.1904 17.0245 10.2878 17.1499 10.4385C17.2753 10.5892 17.3387 10.7819 17.3273 10.9776C17.3158 11.1734 17.2304 11.3574 17.0883 11.4925C16.9462 11.6275 16.7581 11.7035 16.562 11.705Z" fill="url(#paint52_linear_11_12508)"/>
</g>
<path d="M7.82825 5.88359C7.82825 5.06805 8.15222 4.28591 8.72889 3.70924C9.30557 3.13257 10.0877 2.80859 10.9032 2.80859H13.8935C14.709 2.80859 15.4912 3.13257 16.0679 3.70924C16.6445 4.28591 16.9685 5.06805 16.9685 5.88359V7.89509H7.829L7.82825 5.88359Z" fill="url(#paint53_radial_11_12508)"/>
<path d="M7.82825 5.88359C7.82825 5.06805 8.15222 4.28591 8.72889 3.70924C9.30557 3.13257 10.0877 2.80859 10.9032 2.80859H13.8935C14.709 2.80859 15.4912 3.13257 16.0679 3.70924C16.6445 4.28591 16.9685 5.06805 16.9685 5.88359V7.89509H7.829L7.82825 5.88359Z" fill="url(#paint54_radial_11_12508)"/>
<path d="M7.82825 5.88359C7.82825 5.06805 8.15222 4.28591 8.72889 3.70924C9.30557 3.13257 10.0877 2.80859 10.9032 2.80859H13.8935C14.709 2.80859 15.4912 3.13257 16.0679 3.70924C16.6445 4.28591 16.9685 5.06805 16.9685 5.88359V7.89509H7.829L7.82825 5.88359Z" fill="url(#paint55_radial_11_12508)"/>
<path d="M7.82825 5.88359C7.82825 5.06805 8.15222 4.28591 8.72889 3.70924C9.30557 3.13257 10.0877 2.80859 10.9032 2.80859H13.8935C14.709 2.80859 15.4912 3.13257 16.0679 3.70924C16.6445 4.28591 16.9685 5.06805 16.9685 5.88359V7.89509H7.829L7.82825 5.88359Z" fill="url(#paint56_radial_11_12508)"/>
<path d="M7.82825 5.88359C7.82825 5.06805 8.15222 4.28591 8.72889 3.70924C9.30557 3.13257 10.0877 2.80859 10.9032 2.80859H13.8935C14.709 2.80859 15.4912 3.13257 16.0679 3.70924C16.6445 4.28591 16.9685 5.06805 16.9685 5.88359V7.89509H7.829L7.82825 5.88359Z" fill="url(#paint57_radial_11_12508)"/>
<path d="M7.82825 5.88359C7.82825 5.06805 8.15222 4.28591 8.72889 3.70924C9.30557 3.13257 10.0877 2.80859 10.9032 2.80859H13.8935C14.709 2.80859 15.4912 3.13257 16.0679 3.70924C16.6445 4.28591 16.9685 5.06805 16.9685 5.88359V7.89509H7.829L7.82825 5.88359Z" fill="url(#paint58_radial_11_12508)"/>
<path d="M7.82825 5.88359C7.82825 5.06805 8.15222 4.28591 8.72889 3.70924C9.30557 3.13257 10.0877 2.80859 10.9032 2.80859H13.8935C14.709 2.80859 15.4912 3.13257 16.0679 3.70924C16.6445 4.28591 16.9685 5.06805 16.9685 5.88359V7.89509H7.829L7.82825 5.88359Z" fill="url(#paint59_linear_11_12508)"/>
<path d="M7.82825 5.88359C7.82825 5.06805 8.15222 4.28591 8.72889 3.70924C9.30557 3.13257 10.0877 2.80859 10.9032 2.80859H13.8935C14.709 2.80859 15.4912 3.13257 16.0679 3.70924C16.6445 4.28591 16.9685 5.06805 16.9685 5.88359V7.89509H7.829L7.82825 5.88359Z" fill="url(#paint60_radial_11_12508)"/>
<g filter="url(#filter11_ii_11_12508)">
<path d="M11.4613 2.05273H13.2538C13.8756 2.05273 14.3788 2.50498 14.3788 3.27748V8.37373H10.3363V3.27748C10.3363 2.50498 10.8396 2.05273 11.4613 2.05273Z" fill="url(#paint61_linear_11_12508)"/>
<path d="M11.4613 2.05273H13.2538C13.8756 2.05273 14.3788 2.50498 14.3788 3.27748V8.37373H10.3363V3.27748C10.3363 2.50498 10.8396 2.05273 11.4613 2.05273Z" fill="url(#paint62_linear_11_12508)"/>
<path d="M11.4613 2.05273H13.2538C13.8756 2.05273 14.3788 2.50498 14.3788 3.27748V8.37373H10.3363V3.27748C10.3363 2.50498 10.8396 2.05273 11.4613 2.05273Z" fill="url(#paint63_radial_11_12508)"/>
<path d="M11.4613 2.05273H13.2538C13.8756 2.05273 14.3788 2.50498 14.3788 3.27748V8.37373H10.3363V3.27748C10.3363 2.50498 10.8396 2.05273 11.4613 2.05273Z" fill="url(#paint64_radial_11_12508)"/>
</g>
<path d="M17.1995 7.88185H7.75477C7.6412 7.88185 7.52876 7.90422 7.42384 7.94767C7.31892 7.99113 7.22359 8.05483 7.14329 8.13513C7.063 8.21543 6.9993 8.31076 6.95584 8.41567C6.91238 8.52059 6.89001 8.63304 6.89001 8.7466C6.89001 8.86016 6.91238 8.97261 6.95584 9.07752C6.9993 9.18244 7.063 9.27777 7.14329 9.35807C7.22359 9.43837 7.31892 9.50206 7.42384 9.54552C7.52876 9.58898 7.6412 9.61135 7.75477 9.61135H17.1995C17.681 9.61135 18.0643 9.22135 18.0643 8.7466C18.0649 8.63287 18.0429 8.52015 17.9997 8.41497C17.9564 8.30978 17.8927 8.21422 17.8123 8.1338C17.7319 8.05338 17.6363 7.9897 17.5311 7.94646C17.426 7.90321 17.3132 7.88125 17.1995 7.88185Z" fill="url(#paint65_linear_11_12508)"/>
<path d="M17.1995 7.88185H7.75477C7.6412 7.88185 7.52876 7.90422 7.42384 7.94767C7.31892 7.99113 7.22359 8.05483 7.14329 8.13513C7.063 8.21543 6.9993 8.31076 6.95584 8.41567C6.91238 8.52059 6.89001 8.63304 6.89001 8.7466C6.89001 8.86016 6.91238 8.97261 6.95584 9.07752C6.9993 9.18244 7.063 9.27777 7.14329 9.35807C7.22359 9.43837 7.31892 9.50206 7.42384 9.54552C7.52876 9.58898 7.6412 9.61135 7.75477 9.61135H17.1995C17.681 9.61135 18.0643 9.22135 18.0643 8.7466C18.0649 8.63287 18.0429 8.52015 17.9997 8.41497C17.9564 8.30978 17.8927 8.21422 17.8123 8.1338C17.7319 8.05338 17.6363 7.9897 17.5311 7.94646C17.426 7.90321 17.3132 7.88125 17.1995 7.88185Z" fill="url(#paint66_linear_11_12508)"/>
<path d="M17.1995 7.88185H7.75477C7.6412 7.88185 7.52876 7.90422 7.42384 7.94767C7.31892 7.99113 7.22359 8.05483 7.14329 8.13513C7.063 8.21543 6.9993 8.31076 6.95584 8.41567C6.91238 8.52059 6.89001 8.63304 6.89001 8.7466C6.89001 8.86016 6.91238 8.97261 6.95584 9.07752C6.9993 9.18244 7.063 9.27777 7.14329 9.35807C7.22359 9.43837 7.31892 9.50206 7.42384 9.54552C7.52876 9.58898 7.6412 9.61135 7.75477 9.61135H17.1995C17.681 9.61135 18.0643 9.22135 18.0643 8.7466C18.0649 8.63287 18.0429 8.52015 17.9997 8.41497C17.9564 8.30978 17.8927 8.21422 17.8123 8.1338C17.7319 8.05338 17.6363 7.9897 17.5311 7.94646C17.426 7.90321 17.3132 7.88125 17.1995 7.88185Z" fill="url(#paint67_linear_11_12508)"/>
<path d="M17.1995 7.88185H7.75477C7.6412 7.88185 7.52876 7.90422 7.42384 7.94767C7.31892 7.99113 7.22359 8.05483 7.14329 8.13513C7.063 8.21543 6.9993 8.31076 6.95584 8.41567C6.91238 8.52059 6.89001 8.63304 6.89001 8.7466C6.89001 8.86016 6.91238 8.97261 6.95584 9.07752C6.9993 9.18244 7.063 9.27777 7.14329 9.35807C7.22359 9.43837 7.31892 9.50206 7.42384 9.54552C7.52876 9.58898 7.6412 9.61135 7.75477 9.61135H17.1995C17.681 9.61135 18.0643 9.22135 18.0643 8.7466C18.0649 8.63287 18.0429 8.52015 17.9997 8.41497C17.9564 8.30978 17.8927 8.21422 17.8123 8.1338C17.7319 8.05338 17.6363 7.9897 17.5311 7.94646C17.426 7.90321 17.3132 7.88125 17.1995 7.88185Z" fill="url(#paint68_radial_11_12508)"/>
<defs>
<filter id="filter0_ii_11_12508" x="8.42383" y="6.15381" width="8.76123" height="10.0756" filterUnits="userSpaceOnUse" color-interpolation-filters="sRGB">
<feFlood flood-opacity="0" result="BackgroundImageFix"/>
<feBlend mode="normal" in="SourceGraphic" in2="BackgroundImageFix" result="shape"/>
<feColorMatrix in="SourceAlpha" type="matrix" values="0 0 0 0 0 0 0 0 0 0 0 0 0 0 0 0 0 0 127 0" result="hardAlpha"/>
<feOffset dx="0.5"/>
<feGaussianBlur stdDeviation="0.35"/>
<feComposite in2="hardAlpha" operator="arithmetic" k2="-1" k3="1"/>
<feColorMatrix type="matrix" values="0 0 0 0 0.913725 0 0 0 0 0.686275 0 0 0 0 0.592157 0 0 0 1 0"/>
<feBlend mode="normal" in2="shape" result="effect1_innerShadow_11_12508"/>
<feColorMatrix in="SourceAlpha" type="matrix" values="0 0 0 0 0 0 0 0 0 0 0 0 0 0 0 0 0 0 127 0" result="hardAlpha"/>
<feOffset dy="0.1"/>
<feGaussianBlur stdDeviation="0.1875"/>
<feComposite in2="hardAlpha" operator="arithmetic" k2="-1" k3="1"/>
<feColorMatrix type="matrix" values="0 0 0 0 0.780392 0 0 0 0 0.568627 0 0 0 0 0.486275 0 0 0 1 0"/>
<feBlend mode="normal" in2="effect1_innerShadow_11_12508" result="effect2_innerShadow_11_12508"/>
</filter>
<filter id="filter1_f_11_12508" x="11.1953" y="9.97168" width="2.41199" height="3.34473" filterUnits="userSpaceOnUse" color-interpolation-filters="sRGB">
<feFlood flood-opacity="0" result="BackgroundImageFix"/>
<feBlend mode="normal" in="SourceGraphic" in2="BackgroundImageFix" result="shape"/>
<feGaussianBlur stdDeviation="0.25" result="effect1_foregroundBlur_11_12508"/>
</filter>
<filter id="filter2_f_11_12508" x="11.657" y="10.2174" width="1.7177" height="2.54424" filterUnits="userSpaceOnUse" color-interpolation-filters="sRGB">
<feFlood flood-opacity="0" result="BackgroundImageFix"/>
<feBlend mode="normal" in="SourceGraphic" in2="BackgroundImageFix" result="shape"/>
<feGaussianBlur stdDeviation="0.05" result="effect1_foregroundBlur_11_12508"/>
</filter>
<filter id="filter3_f_11_12508" x="11.7192" y="10.2179" width="1.71721" height="2.54375" filterUnits="userSpaceOnUse" color-interpolation-filters="sRGB">
<feFlood flood-opacity="0" result="BackgroundImageFix"/>
<feBlend mode="normal" in="SourceGraphic" in2="BackgroundImageFix" result="shape"/>
<feGaussianBlur stdDeviation="0.05" result="effect1_foregroundBlur_11_12508"/>
</filter>
<filter id="filter4_f_11_12508" x="11.0711" y="13.0594" width="2.88882" height="1.15469" filterUnits="userSpaceOnUse" color-interpolation-filters="sRGB">
<feFlood flood-opacity="0" result="BackgroundImageFix"/>
<feBlend mode="normal" in="SourceGraphic" in2="BackgroundImageFix" result="shape"/>
<feGaussianBlur stdDeviation="0.025" result="effect1_foregroundBlur_11_12508"/>
</filter>
<filter id="filter5_f_11_12508" x="13.7173" y="10.0765" width="0.574487" height="0.501367" filterUnits="userSpaceOnUse" color-interpolation-filters="sRGB">
<feFlood flood-opacity="0" result="BackgroundImageFix"/>
<feBlend mode="normal" in="SourceGraphic" in2="BackgroundImageFix" result="shape"/>
<feGaussianBlur stdDeviation="0.025" result="effect1_foregroundBlur_11_12508"/>
</filter>
<filter id="filter6_f_11_12508" x="14.4266" y="10.1676" width="0.597461" height="0.615527" filterUnits="userSpaceOnUse" color-interpolation-filters="sRGB">
<feFlood flood-opacity="0" result="BackgroundImageFix"/>
<feBlend mode="normal" in="SourceGraphic" in2="BackgroundImageFix" result="shape"/>
<feGaussianBlur stdDeviation="0.05" result="effect1_foregroundBlur_11_12508"/>
</filter>
<filter id="filter7_f_11_12508" x="10.8363" y="10.1173" width="0.673267" height="0.717578" filterUnits="userSpaceOnUse" color-interpolation-filters="sRGB">
<feFlood flood-opacity="0" result="BackgroundImageFix"/>
<feBlend mode="normal" in="SourceGraphic" in2="BackgroundImageFix" result="shape"/>
<feGaussianBlur stdDeviation="0.05" result="effect1_foregroundBlur_11_12508"/>
</filter>
<filter id="filter8_f_11_12508" x="10.1945" y="10.0696" width="0.67666" height="0.508203" filterUnits="userSpaceOnUse" color-interpolation-filters="sRGB">
<feFlood flood-opacity="0" result="BackgroundImageFix"/>
<feBlend mode="normal" in="SourceGraphic" in2="BackgroundImageFix" result="shape"/>
<feGaussianBlur stdDeviation="0.025" result="effect1_foregroundBlur_11_12508"/>
</filter>
<filter id="filter9_f_11_12508" x="7.67883" y="10.0479" width="0.918701" height="1.76855" filterUnits="userSpaceOnUse" color-interpolation-filters="sRGB">
<feFlood flood-opacity="0" result="BackgroundImageFix"/>
<feBlend mode="normal" in="SourceGraphic" in2="BackgroundImageFix" result="shape"/>
<feGaussianBlur stdDeviation="0.0625" result="effect1_foregroundBlur_11_12508"/>
</filter>
<filter id="filter10_f_11_12508" x="16.312" y="9.91602" width="1.2666" height="2.03906" filterUnits="userSpaceOnUse" color-interpolation-filters="sRGB">
<feFlood flood-opacity="0" result="BackgroundImageFix"/>
<feBlend mode="normal" in="SourceGraphic" in2="BackgroundImageFix" result="shape"/>
<feGaussianBlur stdDeviation="0.125" result="effect1_foregroundBlur_11_12508"/>
</filter>
<filter id="filter11_ii_11_12508" x="10.2363" y="2.05273" width="4.24248" height="6.3208" filterUnits="userSpaceOnUse" color-interpolation-filters="sRGB">
<feFlood flood-opacity="0" result="BackgroundImageFix"/>
<feBlend mode="normal" in="SourceGraphic" in2="BackgroundImageFix" result="shape"/>
<feColorMatrix in="SourceAlpha" type="matrix" values="0 0 0 0 0 0 0 0 0 0 0 0 0 0 0 0 0 0 127 0" result="hardAlpha"/>
<feOffset dx="0.1"/>
<feGaussianBlur stdDeviation="0.15"/>
<feComposite in2="hardAlpha" operator="arithmetic" k2="-1" k3="1"/>
<feColorMatrix type="matrix" values="0 0 0 0 0.768627 0 0 0 0 0.658824 0 0 0 0 0.321569 0 0 0 1 0"/>
<feBlend mode="normal" in2="shape" result="effect1_innerShadow_11_12508"/>
<feColorMatrix in="SourceAlpha" type="matrix" values="0 0 0 0 0 0 0 0 0 0 0 0 0 0 0 0 0 0 127 0" result="hardAlpha"/>
<feOffset dx="-0.1"/>
<feGaussianBlur stdDeviation="0.15"/>
<feComposite in2="hardAlpha" operator="arithmetic" k2="-1" k3="1"/>
<feColorMatrix type="matrix" values="0 0 0 0 1 0 0 0 0 0.92549 0 0 0 0 0.372549 0 0 0 1 0"/>
<feBlend mode="normal" in2="effect1_innerShadow_11_12508" result="effect2_innerShadow_11_12508"/>
</filter>
<radialGradient id="paint0_radial_11_12508" cx="0" cy="0" r="1" gradientUnits="userSpaceOnUse" gradientTransform="translate(12.5075 22.8007) rotate(-90) scale(7.21875 4.92943)">
<stop stop-color="#FF804B"/>
<stop offset="1" stop-color="#FF8B3C"/>
</radialGradient>
<radialGradient id="paint1_radial_11_12508" cx="0" cy="0" r="1" gradientUnits="userSpaceOnUse" gradientTransform="translate(14.5078 20.1292) rotate(180) scale(0.960937 9.3777)">
<stop stop-color="#FF8E3D"/>
<stop offset="1" stop-color="#FF8E3D" stop-opacity="0"/>
</radialGradient>
<radialGradient id="paint2_radial_11_12508" cx="0" cy="0" r="1" gradientUnits="userSpaceOnUse" gradientTransform="translate(10.79 18.9234) rotate(90) scale(4.43547 1.21276)">
<stop stop-color="#FF7446"/>
<stop offset="1" stop-color="#FF6F4E"/>
</radialGradient>
<radialGradient id="paint3_radial_11_12508" cx="0" cy="0" r="1" gradientUnits="userSpaceOnUse" gradientTransform="translate(10.79 20.1737) rotate(90) scale(3.41862 0.526117)">
<stop offset="0.35" stop-color="#FF7E58"/>
<stop offset="1" stop-color="#FF7E58" stop-opacity="0"/>
</radialGradient>
<radialGradient id="paint4_radial_11_12508" cx="0" cy="0" r="1" gradientUnits="userSpaceOnUse" gradientTransform="translate(11.1557 15.5279) rotate(116.713) scale(2.53503 4.14138)">
<stop offset="0.343" stop-color="#DA4708"/>
<stop offset="1" stop-color="#DC5314" stop-opacity="0"/>
</radialGradient>
<radialGradient id="paint5_radial_11_12508" cx="0" cy="0" r="1" gradientUnits="userSpaceOnUse" gradientTransform="translate(15.5323 15.6999) rotate(90) scale(7.07812 2.12539)">
<stop stop-color="#FF7523"/>
<stop offset="1" stop-color="#FB684A"/>
</radialGradient>
<radialGradient id="paint6_radial_11_12508" cx="0" cy="0" r="1" gradientUnits="userSpaceOnUse" gradientTransform="translate(14.2101 21.0384) scale(0.661282 8.28547)">
<stop offset="0.214" stop-color="#F25937"/>
<stop offset="1" stop-color="#F25937" stop-opacity="0"/>
</radialGradient>
<linearGradient id="paint7_linear_11_12508" x1="7.36861" y1="16.3994" x2="7.36861" y2="22.9476" gradientUnits="userSpaceOnUse">
<stop stop-color="#E6743E"/>
<stop offset="1" stop-color="#F46D40"/>
</linearGradient>
<radialGradient id="paint8_radial_11_12508" cx="0" cy="0" r="1" gradientUnits="userSpaceOnUse" gradientTransform="translate(9.81211 22.1639) rotate(-112.642) scale(6.87178 7.83885)">
<stop offset="0.684" stop-color="#E07241" stop-opacity="0"/>
<stop offset="0.951" stop-color="#CC6E42"/>
</radialGradient>
<radialGradient id="paint9_radial_11_12508" cx="0" cy="0" r="1" gradientUnits="userSpaceOnUse" gradientTransform="translate(6.75511 22.9476) scale(0.0979275 6.75491)">
<stop offset="0.245" stop-color="#DE521D"/>
<stop offset="1" stop-color="#DE521D" stop-opacity="0"/>
</radialGradient>
<radialGradient id="paint10_radial_11_12508" cx="0" cy="0" r="1" gradientUnits="userSpaceOnUse" gradientTransform="translate(18.245 17.4081) rotate(90) scale(6.58741 1.50753)">
<stop offset="0.309" stop-color="#FF905A"/>
<stop offset="1" stop-color="#FF7955"/>
</radialGradient>
<radialGradient id="paint11_radial_11_12508" cx="0" cy="0" r="1" gradientUnits="userSpaceOnUse" gradientTransform="translate(18.245 21.4536) rotate(90) scale(3.28125 0.20892)">
<stop offset="0.325" stop-color="#FE713A"/>
<stop offset="1" stop-color="#FE713A" stop-opacity="0"/>
</radialGradient>
<radialGradient id="paint12_radial_11_12508" cx="0" cy="0" r="1" gradientUnits="userSpaceOnUse" gradientTransform="translate(11.4416 23.6177) rotate(-108.091) scale(8.74845 14.0014)">
<stop offset="0.566" stop-color="#FDBF28" stop-opacity="0"/>
<stop offset="0.971" stop-color="#CD963A"/>
</radialGradient>
<linearGradient id="paint13_linear_11_12508" x1="16.2756" y1="15.3013" x2="16.2756" y2="22.9475" gradientUnits="userSpaceOnUse">
<stop stop-color="#FFDA42"/>
<stop offset="1" stop-color="#FFCF4C"/>
</linearGradient>
<radialGradient id="paint14_radial_11_12508" cx="0" cy="0" r="1" gradientUnits="userSpaceOnUse" gradientTransform="translate(14.9301 19.52) rotate(-71.0295) scale(4.13886 6.39245)">
<stop offset="0.834" stop-color="#FFCE64" stop-opacity="0"/>
<stop offset="0.998" stop-color="#FFCE64"/>
</radialGradient>
<radialGradient id="paint15_radial_11_12508" cx="0" cy="0" r="1" gradientUnits="userSpaceOnUse" gradientTransform="translate(5.35331 22.1675) rotate(-75.6554) scale(5.66086 2.28025)">
<stop stop-color="#F37D42"/>
<stop offset="1" stop-color="#CE763C"/>
</radialGradient>
<linearGradient id="paint16_linear_11_12508" x1="6.85106" y1="22.9467" x2="5.81756" y2="22.829" gradientUnits="userSpaceOnUse">
<stop offset="0.333" stop-color="#D15D2A"/>
<stop offset="1" stop-color="#D15D2A" stop-opacity="0"/>
</linearGradient>
<radialGradient id="paint17_radial_11_12508" cx="0" cy="0" r="1" gradientUnits="userSpaceOnUse" gradientTransform="translate(19.7578 22.9475) rotate(-99.8102) scale(6.19002 1.88763)">
<stop stop-color="#FF9C5E"/>
<stop offset="1" stop-color="#FF9457"/>
</radialGradient>
<radialGradient id="paint18_radial_11_12508" cx="0" cy="0" r="1" gradientUnits="userSpaceOnUse" gradientTransform="translate(18.2443 22.9475) rotate(-90) scale(6.24317 0.468855)">
<stop offset="0.353" stop-color="#EE6A13"/>
<stop offset="1" stop-color="#EE6A13" stop-opacity="0"/>
</radialGradient>
<radialGradient id="paint19_radial_11_12508" cx="0" cy="0" r="1" gradientUnits="userSpaceOnUse" gradientTransform="translate(12.5158 16.0162) rotate(90) scale(1.5 3.64957)">
<stop offset="0.133" stop-color="#DB898D"/>
<stop offset="0.88" stop-color="#E19A9B"/>
</radialGradient>
<radialGradient id="paint20_radial_11_12508" cx="0" cy="0" r="1" gradientUnits="userSpaceOnUse" gradientTransform="translate(14.2971 16.1557) rotate(125.503) scale(2.26002 1.12106)">
<stop offset="0.239" stop-color="#F3A69A"/>
<stop offset="1" stop-color="#F3A69A" stop-opacity="0"/>
</radialGradient>
<radialGradient id="paint21_radial_11_12508" cx="0" cy="0" r="1" gradientUnits="userSpaceOnUse" gradientTransform="translate(13.0198 15.8047) rotate(143.436) scale(2.44283 3.19386)">
<stop offset="0.694" stop-color="#D98E90" stop-opacity="0"/>
<stop offset="1" stop-color="#D98E90"/>
</radialGradient>
<radialGradient id="paint22_radial_11_12508" cx="0" cy="0" r="1" gradientUnits="userSpaceOnUse" gradientTransform="translate(16.3588 11.9023) rotate(69.657) scale(1.74107 2.06826)">
<stop offset="0.215" stop-color="#313131"/>
<stop offset="1" stop-color="#1A161E"/>
</radialGradient>
<radialGradient id="paint23_radial_11_12508" cx="0" cy="0" r="1" gradientUnits="userSpaceOnUse" gradientTransform="translate(7.61985 12.2983) rotate(17.4469) scale(1.25104 3.85955)">
<stop stop-color="#564943"/>
<stop offset="0.746" stop-color="#1E191C"/>
</radialGradient>
<radialGradient id="paint24_radial_11_12508" cx="0" cy="0" r="1" gradientUnits="userSpaceOnUse" gradientTransform="translate(14.7261 11.3641) rotate(180) scale(3.07031 4.94021)">
<stop stop-color="#FFD6B8"/>
<stop offset="1" stop-color="#DFA899"/>
</radialGradient>
<linearGradient id="paint25_linear_11_12508" x1="16.6851" y1="12.5041" x2="13.1661" y2="12.5041" gradientUnits="userSpaceOnUse">
<stop stop-color="#FFD6BA"/>
<stop offset="1" stop-color="#FFD6BA" stop-opacity="0"/>
</linearGradient>
<radialGradient id="paint26_radial_11_12508" cx="0" cy="0" r="1" gradientUnits="userSpaceOnUse" gradientTransform="translate(12.9876 6.15381) rotate(90) scale(10.529 10.6603)">
<stop offset="0.731" stop-color="#D69B93" stop-opacity="0"/>
<stop offset="0.98" stop-color="#C9747E"/>
</radialGradient>
<radialGradient id="paint27_radial_11_12508" cx="0" cy="0" r="1" gradientUnits="userSpaceOnUse" gradientTransform="translate(14.4943 10.0808) rotate(-90) scale(0.92826 1.14872)">
<stop offset="0.325" stop-color="#F6B8A8"/>
<stop offset="1" stop-color="#F6B8A8" stop-opacity="0"/>
</radialGradient>
<radialGradient id="paint28_radial_11_12508" cx="0" cy="0" r="1" gradientUnits="userSpaceOnUse" gradientTransform="translate(10.6566 10.1183) rotate(-89.794) scale(0.884556 0.962609)">
<stop offset="0.378" stop-color="#D39991"/>
<stop offset="1" stop-color="#D39991" stop-opacity="0"/>
</radialGradient>
<radialGradient id="paint29_radial_11_12508" cx="0" cy="0" r="1" gradientUnits="userSpaceOnUse" gradientTransform="translate(15.2908 11.9401) rotate(176.388) scale(6.88134 17.5783)">
<stop offset="0.836" stop-color="#E6AD97" stop-opacity="0"/>
<stop offset="1" stop-color="#E6AD97"/>
</radialGradient>
<radialGradient id="paint30_radial_11_12508" cx="0" cy="0" r="1" gradientUnits="userSpaceOnUse" gradientTransform="translate(8.09674 7.6454) rotate(-46.611) scale(3.64597 1.33468)">
<stop offset="0.428" stop-color="#9F6D5C"/>
<stop offset="1" stop-color="#9F6D5C" stop-opacity="0"/>
</radialGradient>
<radialGradient id="paint31_radial_11_12508" cx="0" cy="0" r="1" gradientUnits="userSpaceOnUse" gradientTransform="translate(14.4778 7.11666) rotate(121.159) scale(2.7233 2.2483)">
<stop offset="0.078" stop-color="#F6C3B0"/>
<stop offset="1" stop-color="#F6C3B0" stop-opacity="0"/>
</radialGradient>
<linearGradient id="paint32_linear_11_12508" x1="12.5541" y1="9.43881" x2="12.5541" y2="10.9973" gradientUnits="userSpaceOnUse">
<stop offset="0.253" stop-color="#E59B89"/>
<stop offset="1" stop-color="#E59B89" stop-opacity="0"/>
</linearGradient>
<linearGradient id="paint33_linear_11_12508" x1="13.1758" y1="11.6318" x2="12.5158" y2="11.7158" gradientUnits="userSpaceOnUse">
<stop stop-color="#FFD1BB"/>
<stop offset="1" stop-color="#FFD1BB" stop-opacity="0"/>
</linearGradient>
<radialGradient id="paint34_radial_11_12508" cx="0" cy="0" r="1" gradientUnits="userSpaceOnUse" gradientTransform="translate(12.893 12.2415) rotate(90) scale(0.197325 0.620145)">
<stop stop-color="#FFD1BB"/>
<stop offset="1" stop-color="#FFD1BB" stop-opacity="0"/>
</radialGradient>
<linearGradient id="paint35_linear_11_12508" x1="12.5158" y1="12.6083" x2="12.5158" y2="12.2325" gradientUnits="userSpaceOnUse">
<stop stop-color="#D89793"/>
<stop offset="1" stop-color="#D89793" stop-opacity="0"/>
</linearGradient>
<linearGradient id="paint36_linear_11_12508" x1="12.578" y1="10.0215" x2="12.7565" y2="11.5973" gradientUnits="userSpaceOnUse">
<stop stop-color="#E59D8A"/>
<stop offset="1" stop-color="#E59D8A" stop-opacity="0"/>
</linearGradient>
<linearGradient id="paint37_linear_11_12508" x1="11.5445" y1="13.8778" x2="11.8018" y2="13.2035" gradientUnits="userSpaceOnUse">
<stop stop-color="#E1ACA6"/>
<stop offset="1" stop-color="#E1ACA6" stop-opacity="0"/>
</linearGradient>
<radialGradient id="paint38_radial_11_12508" cx="0" cy="0" r="1" gradientUnits="userSpaceOnUse" gradientTransform="translate(12.5158 14.0025) rotate(-90) scale(0.5826 2.34396)">
<stop stop-color="#88014E"/>
<stop offset="1" stop-color="#86004D"/>
</radialGradient>
<radialGradient id="paint39_radial_11_12508" cx="0" cy="0" r="1" gradientUnits="userSpaceOnUse" gradientTransform="translate(14.2798 10.4011) rotate(90) scale(0.655822 1.04316)">
<stop offset="0.802" stop-color="#7D574A"/>
<stop offset="1" stop-color="#664842"/>
</radialGradient>
<radialGradient id="paint40_radial_11_12508" cx="0" cy="0" r="1" gradientUnits="userSpaceOnUse" gradientTransform="translate(14.0961 10.4693) rotate(-127.812) scale(0.305789 0.420987)">
<stop offset="0.766" stop-color="#FFE6E2" stop-opacity="0"/>
<stop offset="0.966" stop-color="#FFE6E2"/>
</radialGradient>
<linearGradient id="paint41_linear_11_12508" x1="14.9091" y1="10.4446" x2="14.6549" y2="10.6006" gradientUnits="userSpaceOnUse">
<stop stop-color="#B4948D"/>
<stop offset="1" stop-color="#B4948D" stop-opacity="0"/>
</linearGradient>
<radialGradient id="paint42_radial_11_12508" cx="0" cy="0" r="1" gradientUnits="userSpaceOnUse" gradientTransform="translate(10.7525 10.4011) rotate(90) scale(0.65586 1.04321)">
<stop offset="0.802" stop-color="#7D574A"/>
<stop offset="1" stop-color="#664842"/>
</radialGradient>
<linearGradient id="paint43_linear_11_12508" x1="11.3533" y1="10.4445" x2="11.0998" y2="10.6005" gradientUnits="userSpaceOnUse">
<stop stop-color="#B4948D"/>
<stop offset="1" stop-color="#B4948D" stop-opacity="0"/>
</linearGradient>
<radialGradient id="paint44_radial_11_12508" cx="0" cy="0" r="1" gradientUnits="userSpaceOnUse" gradientTransform="translate(10.6416 10.5544) rotate(-118.811) scale(0.399435 0.480143)">
<stop offset="0.766" stop-color="#FFE6E2" stop-opacity="0"/>
<stop offset="0.966" stop-color="#FFE6E2"/>
</radialGradient>
<linearGradient id="paint45_linear_11_12508" x1="17.7185" y1="10.466" x2="16.7428" y2="12.2255" gradientUnits="userSpaceOnUse">
<stop stop-color="#FFD6BD"/>
<stop offset="1" stop-color="#F0B8A6"/>
</linearGradient>
<radialGradient id="paint46_radial_11_12508" cx="0" cy="0" r="1" gradientUnits="userSpaceOnUse" gradientTransform="translate(16.2485 10.412) rotate(74.3475) scale(1.88318 1.79669)">
<stop offset="0.856" stop-color="#CE978E" stop-opacity="0"/>
<stop offset="1" stop-color="#CE978E"/>
</radialGradient>
<radialGradient id="paint47_radial_11_12508" cx="0" cy="0" r="1" gradientUnits="userSpaceOnUse" gradientTransform="translate(16.5403 10.8523) rotate(-53.9196) scale(1.0813 0.906344)">
<stop offset="0.664" stop-color="#F7B99C"/>
<stop offset="1" stop-color="#F7B99C" stop-opacity="0"/>
</radialGradient>
<radialGradient id="paint48_radial_11_12508" cx="0" cy="0" r="1" gradientUnits="userSpaceOnUse" gradientTransform="translate(16.6325 10.9925) rotate(-69.2631) scale(1.34009 1.79054)">
<stop offset="0.803" stop-color="#EBBB9D" stop-opacity="0"/>
<stop offset="1" stop-color="#EBBB9D"/>
</radialGradient>
<linearGradient id="paint49_linear_11_12508" x1="7.78711" y1="11.0354" x2="8.96611" y2="10.9327" gradientUnits="userSpaceOnUse">
<stop stop-color="#D19787"/>
<stop offset="1" stop-color="#C9887D"/>
</linearGradient>
<radialGradient id="paint50_radial_11_12508" cx="0" cy="0" r="1" gradientUnits="userSpaceOnUse" gradientTransform="translate(8.5427 10.9317) rotate(-173.034) scale(1.31369 1.41019)">
<stop offset="0.775" stop-color="#E8AF99" stop-opacity="0"/>
<stop offset="1" stop-color="#E8AF99"/>
</radialGradient>
<radialGradient id="paint51_radial_11_12508" cx="0" cy="0" r="1" gradientUnits="userSpaceOnUse" gradientTransform="translate(8.543 10.9326) rotate(170.26) scale(0.751662 0.922332)">
<stop stop-color="#C18472"/>
<stop offset="1" stop-color="#CA8B7A"/>
</radialGradient>
<linearGradient id="paint52_linear_11_12508" x1="16.9445" y1="10.166" x2="16.9445" y2="11.705" gradientUnits="userSpaceOnUse">
<stop stop-color="#F9BB9E"/>
<stop offset="1" stop-color="#F6BBA0"/>
</linearGradient>
<radialGradient id="paint53_radial_11_12508" cx="0" cy="0" r="1" gradientUnits="userSpaceOnUse" gradientTransform="translate(15.188 5.59784) rotate(90) scale(3.42187 2.16049)">
<stop stop-color="#FFEE61"/>
<stop offset="1" stop-color="#FFDD44"/>
</radialGradient>
<radialGradient id="paint54_radial_11_12508" cx="0" cy="0" r="1" gradientUnits="userSpaceOnUse" gradientTransform="translate(9.3755 7.89509) rotate(-90) scale(12 4.34831)">
<stop offset="0.301" stop-color="#E9B840"/>
<stop offset="1" stop-color="#E9B840" stop-opacity="0"/>
</radialGradient>
<radialGradient id="paint55_radial_11_12508" cx="0" cy="0" r="1" gradientUnits="userSpaceOnUse" gradientTransform="translate(13.43 8.22284) rotate(-80.901) scale(6.07646 11.5976)">
<stop offset="0.814" stop-color="#EECD67" stop-opacity="0"/>
<stop offset="0.946" stop-color="#EECD67"/>
</radialGradient>
<radialGradient id="paint56_radial_11_12508" cx="0" cy="0" r="1" gradientUnits="userSpaceOnUse" gradientTransform="translate(10.3827 5.35184) rotate(90) scale(5.15625 0.442778)">
<stop offset="0.305" stop-color="#D7A439"/>
<stop offset="1" stop-color="#E1B037" stop-opacity="0"/>
</radialGradient>
<radialGradient id="paint57_radial_11_12508" cx="0" cy="0" r="1" gradientUnits="userSpaceOnUse" gradientTransform="translate(10.4765 2.52734) rotate(84.92) scale(3.17653 1.26896)">
<stop offset="0.103" stop-color="#B59741"/>
<stop offset="1" stop-color="#CBA731" stop-opacity="0"/>
</radialGradient>
<radialGradient id="paint58_radial_11_12508" cx="0" cy="0" r="1" gradientUnits="userSpaceOnUse" gradientTransform="translate(13.055 7.77734) rotate(-129.472) scale(6.19389 7.61362)">
<stop offset="0.781" stop-color="#C3A852" stop-opacity="0"/>
<stop offset="1" stop-color="#C3A852"/>
</radialGradient>
<linearGradient id="paint59_linear_11_12508" x1="7.82825" y1="7.42559" x2="8.438" y2="7.42559" gradientUnits="userSpaceOnUse">
<stop stop-color="#CDAC54"/>
<stop offset="1" stop-color="#CDAC54" stop-opacity="0"/>
</linearGradient>
<radialGradient id="paint60_radial_11_12508" cx="0" cy="0" r="1" gradientUnits="userSpaceOnUse" gradientTransform="translate(8.71925 8.07059) rotate(-90) scale(0.445312 4.34765)">
<stop offset="0.263" stop-color="#C8A03F"/>
<stop offset="1" stop-color="#C8A03F" stop-opacity="0"/>
</radialGradient>
<linearGradient id="paint61_linear_11_12508" x1="12.3576" y1="2.05273" x2="12.3576" y2="8.37373" gradientUnits="userSpaceOnUse">
<stop stop-color="#F9CD2E"/>
<stop offset="1" stop-color="#FFCA3D"/>
</linearGradient>
<linearGradient id="paint62_linear_11_12508" x1="12.3576" y1="2.05273" x2="12.3576" y2="4.00423" gradientUnits="userSpaceOnUse">
<stop stop-color="#E7C44C"/>
<stop offset="1" stop-color="#E7C44C" stop-opacity="0"/>
</linearGradient>
<radialGradient id="paint63_radial_11_12508" cx="0" cy="0" r="1" gradientUnits="userSpaceOnUse" gradientTransform="translate(10.5943 7.89523) rotate(-90) scale(6.79688 0.75)">
<stop stop-color="#E3B438"/>
<stop offset="1" stop-color="#E3B438" stop-opacity="0"/>
</radialGradient>
<radialGradient id="paint64_radial_11_12508" cx="0" cy="0" r="1" gradientUnits="userSpaceOnUse" gradientTransform="translate(14.2506 7.94173) rotate(-90) scale(6.58594 1.26562)">
<stop stop-color="#FFE550"/>
<stop offset="1" stop-color="#FFE550" stop-opacity="0"/>
</radialGradient>
<linearGradient id="paint65_linear_11_12508" x1="16.8395" y1="8.9326" x2="4.36851" y2="8.9326" gradientUnits="userSpaceOnUse">
<stop stop-color="#FFE24A"/>
<stop offset="1" stop-color="#F0BC33"/>
</linearGradient>
<linearGradient id="paint66_linear_11_12508" x1="12.1903" y1="7.88185" x2="12.1903" y2="8.1166" gradientUnits="userSpaceOnUse">
<stop offset="0.027" stop-color="#FFD131"/>
<stop offset="1" stop-color="#FFD131" stop-opacity="0"/>
</linearGradient>
<linearGradient id="paint67_linear_11_12508" x1="12.8788" y1="9.61135" x2="12.8788" y2="8.6716" gradientUnits="userSpaceOnUse">
<stop stop-color="#E1926F"/>
<stop offset="1" stop-color="#F9B14D" stop-opacity="0"/>
</linearGradient>
<radialGradient id="paint68_radial_11_12508" cx="0" cy="0" r="1" gradientUnits="userSpaceOnUse" gradientTransform="translate(9.27277 7.2016) rotate(75.7529) scale(1.59423 9.53332)">
<stop offset="0.173" stop-color="#C4A966"/>
<stop offset="1" stop-color="#DFB83E" stop-opacity="0"/>
</radialGradient>
</defs>
</svg>
