<svg width="16" height="16" viewBox="0 0 16 16" fill="none" xmlns="http://www.w3.org/2000/svg">
<path d="M2 8.6665C4.4 3.33317 11.6 3.33317 14 8.6665" stroke="#E0AA06" stroke-width="1.5" stroke-linecap="round" stroke-linejoin="round"/>
<path d="M8 11.333C7.73736 11.333 7.47728 11.2813 7.23463 11.1808C6.99198 11.0803 6.7715 10.9329 6.58579 10.7472C6.40007 10.5615 6.25275 10.341 6.15224 10.0984C6.05173 9.85572 6 9.59565 6 9.33301C6 9.07036 6.05173 8.81029 6.15224 8.56764C6.25275 8.32499 6.40007 8.10451 6.58579 7.91879C6.7715 7.73308 6.99198 7.58576 7.23463 7.48525C7.47728 7.38474 7.73736 7.33301 8 7.33301C8.53043 7.33301 9.03914 7.54372 9.41421 7.91879C9.78929 8.29387 10 8.80257 10 9.33301C10 9.86344 9.78929 10.3721 9.41421 10.7472C9.03914 11.1223 8.53043 11.333 8 11.333Z" stroke="#E0AA06" stroke-width="1.5" stroke-linecap="round" stroke-linejoin="round"/>
</svg>
